<svg xmlns="http://www.w3.org/2000/svg" xmlns:xlink="http://www.w3.org/1999/xlink" width="594" height="412" viewBox="0 0 594 412">
    <defs>
        <path id="a" d="M0 411.899h461.063V.69H0z"/>
        <path id="c" d="M0 411.899h461.063V.69H0z"/>
    </defs>
    <g fill="none" fill-rule="evenodd">
        <g fill="#F1F7FD">
            <path d="M191.736 215.918l-.039-.095c-21.255-21.273-55.73-21.289-77.004-.034l-.027.028-98.026 98.189c-21.248 21.259-21.25 55.713-.007 76.976l.011.122c21.255 21.273 55.73 21.289 77.004.034l.028-.027 98.026-98.19c21.247-21.259 21.25-55.713.006-76.976zM577.878 108.422l-.04-.093c-21.256-21.271-55.732-21.283-77.003-.027a59.5 59.5 0 0 0-.027.027l-98.069 98.244c-21.246 21.26-21.246 55.716 0 76.977l.013.12c21.257 21.271 55.733 21.283 77.004.027a59.5 59.5 0 0 0 .027-.027l98.069-98.244c21.246-21.26 21.246-55.716 0-76.977zM223.171 34.613c-12.24-12.25-32.094-12.256-44.343-.016l-.016.016-117.51 117.593c-12.252 12.26-12.252 32.129 0 44.389 12.24 12.25 32.093 12.256 44.342.015l.016-.015L223.17 79.002c12.252-12.26 12.252-32.129 0-44.39z"/>
        </g>
        <g transform="translate(67 -.59)">
            <path fill="#004FBE" d="M415.94 91.751v251.52H45.115V91.752c0-8.397 6.8-15.206 15.188-15.206h340.451c8.389 0 15.188 6.809 15.188 15.206"/>
            <path fill="#CEE5FD" d="M66.591 327.317a3.81 3.81 0 0 1-3.802-3.807V101.376c0-2.099 1.706-3.806 3.802-3.806h327.88a3.809 3.809 0 0 1 3.802 3.806V323.51a3.81 3.81 0 0 1-3.802 3.807H66.59z"/>
            <path fill="#0F0F30" d="M394.471 95.918H66.591a5.455 5.455 0 0 0-5.452 5.458v222.133c0 3.017 2.441 5.46 5.453 5.46H394.47a5.456 5.456 0 0 0 5.453-5.46V101.376a5.456 5.456 0 0 0-5.453-5.458m0 3.304c1.187 0 2.153.967 2.153 2.154v222.133a2.157 2.157 0 0 1-2.153 2.156H66.591a2.157 2.157 0 0 1-2.152-2.156V101.376c0-1.187.966-2.154 2.153-2.154H394.47"/>
            <path fill="#FFF" d="M390.214 111.865v200.38a5.504 5.504 0 0 1-5.5 5.507H75.75a5.503 5.503 0 0 1-5.5-5.506V111.865a5.503 5.503 0 0 1 5.5-5.507h308.965c3.037 0 5.5 2.465 5.5 5.507"/>
            <path fill="#436EF3" d="M461.062 343.271H.001v16.234c0 8.398 6.799 15.206 15.186 15.206h430.688c8.388 0 15.187-6.808 15.187-15.206v-16.234z"/>
            <mask id="b" fill="#fff">
                <use xlink:href="#a"/>
            </mask>
            <path fill="#242468" d="M194.45 359.777h72.164v-16.506h-72.165z" mask="url(#b)"/>
            <path fill="#9BB7FB" d="M134.297 91.992h-66.46a5.503 5.503 0 0 1-5.5-5.507 5.503 5.503 0 0 1 5.5-5.506h66.46c3.037 0 5.5 2.465 5.5 5.506a5.503 5.503 0 0 1-5.5 5.507" mask="url(#b)"/>
        </g>
        <g transform="translate(67 -.59)">
            <path fill="#CEE5FD" d="M408.77 254.828a24.43 24.43 0 0 0 13.155-3.8c.468.03.925.046 1.375.046 13.662 0 24.777-11.128 24.777-24.807a24.9 24.9 0 0 0-4.204-13.815v-3.062c0-3.298-.943-6.488-2.695-9.233a24.01 24.01 0 0 0 .077-1.916c0-14.12-11.473-25.609-25.578-25.609a25.519 25.519 0 0 0-18.832 8.283 21.48 21.48 0 0 0-.92-.02c-9.685 0-19.882 7.954-20.89 15.105-1.01 7.151-1.136 12.594-1.136 12.594a21.475 21.475 0 0 0-5.516 14.388c0 7.435 3.93 14.381 10.177 18.272 4.1 7.825 12.067 13.006 20.957 13.515l-.002.02c.322.03.615.04.938.04l.51.002 7.807-.003z"/>
            <path fill="#FFF" d="M404.233 254.828c4.716 0 9.215-1.306 13.155-3.8.468.03.927.046 1.377.046 13.66 0 24.775-11.128 24.775-24.807 0-4.92-1.48-9.744-4.204-13.815v-3.062c0-3.298-.942-6.488-2.694-9.233.05-.646.077-1.285.077-1.916 0-14.12-11.474-25.609-25.577-25.609a25.52 25.52 0 0 0-18.834 8.283 21.43 21.43 0 0 0-.92-.02c-9.685 0-19.88 7.954-20.89 15.105-1.008 7.151-1.136 12.594-1.136 12.594a21.48 21.48 0 0 0-5.515 14.388c0 7.435 3.93 14.381 10.177 18.272 4.101 7.825 12.067 13.006 20.956 13.515v.02c.321.03.614.04.936.04l.51.002 7.808-.003z"/>
            <path fill="#933000" d="M437.491 226.269c0 10.354-8.384 18.749-18.726 18.749-10.342 0-18.727-8.395-18.727-18.75 0-10.354 8.385-18.748 18.727-18.748s18.726 8.394 18.726 18.749"/>
            <path fill="#DB5100" d="M400.78 222.98c0 8.54-6.914 15.461-15.443 15.461-8.528 0-15.442-6.921-15.442-15.46 0-8.54 6.914-15.462 15.442-15.462 8.53 0 15.443 6.922 15.443 15.462"/>
            <path fill="#FF8C8A" d="M383.571 221.99c0 3.087-2.499 5.588-5.581 5.588a5.585 5.585 0 0 1-5.582-5.588c0-3.087 2.499-5.588 5.582-5.588a5.584 5.584 0 0 1 5.581 5.588"/>
            <mask id="d" fill="#fff">
                <use xlink:href="#c"/>
            </mask>
            <path fill="#DB5100" d="M375.412 220.146h18.793v-18.091h-18.793z" mask="url(#d)"/>
            <path fill="#DB5100" d="M407.365 202.946c0 8.834-7.153 15.996-15.976 15.996-8.824 0-15.978-7.162-15.978-15.996s7.154-15.996 15.978-15.996c8.823 0 15.976 7.162 15.976 15.996" mask="url(#d)"/>
            <path fill="#933000" d="M407.365 202.946c0-7.61-5.314-13.967-12.425-15.585-7.885 6.567-12.77 17.325-8.463 31.158.949.175 3.913.423 4.912.423 8.823 0 15.976-7.162 15.976-15.996" mask="url(#d)"/>
            <path fill="#FF8C8A" d="M403.72 248.775h-7.293c-10.626 0-19.24-8.624-19.24-19.263v-7.302c0-10.639 8.614-19.264 19.24-19.264h7.293c10.626 0 19.24 8.625 19.24 19.264v7.302c0 10.639-8.614 19.263-19.24 19.263" mask="url(#d)"/>
            <path fill="#E95E5E" d="M422.957 221.7v8.328c0 10.35-8.386 18.744-18.724 18.744h-8.317c-.123 0-.234 0-.357-.011 10.227-.135 18.466-8.473 18.466-18.733V221.7c0-3.812-1.128-7.344-3.07-10.305-.1-2.292-.224-4.73-.358-7.31 7.213 2.615 12.36 9.5 12.36 17.615" mask="url(#d)"/>
            <path fill="#E95E5E" d="M429.973 221.99c0 3.087-2.5 5.588-5.583 5.588a5.584 5.584 0 0 1-5.581-5.588c0-3.087 2.5-5.588 5.581-5.588a5.585 5.585 0 0 1 5.583 5.588" mask="url(#d)"/>
            <path fill="#0F0F30" d="M381.418 222.932c.538 0 1.066-.258 1.39-.737a.555.555 0 0 1 .926 0 1.675 1.675 0 1 0 2.776-1.878 3.903 3.903 0 0 0-6.478 0 1.68 1.68 0 0 0 1.386 2.615M402.63 222.932c.538 0 1.066-.258 1.39-.737a.555.555 0 0 1 .927 0c.518.765 1.557.969 2.324.45.767-.518.97-1.562.451-2.328a3.903 3.903 0 0 0-6.478 0 1.68 1.68 0 0 0 1.386 2.615" mask="url(#d)"/>
            <path fill="#AF4646" d="M404.16 233.164c0 5.488-4.444 9.925-9.914 9.925s-9.903-4.437-9.903-9.925h19.817z" mask="url(#d)"/>
            <path fill="#DB5100" d="M430.67 198.24c0 10.8-8.743 19.553-19.529 19.553-10.785 0-19.528-8.754-19.528-19.552 0-10.799 8.743-19.552 19.528-19.552 10.786 0 19.528 8.753 19.528 19.552" mask="url(#d)"/>
            <path fill="#933000" d="M422.96 223.864h-1.144a6.04 6.04 0 0 1-6.035-6.043v-1.146h7.18v7.189z" mask="url(#d)"/>
            <path fill="#DB5100" d="M422.15 198.24h-30.537v3.072c0 8.95 7.248 16.208 16.187 16.208h25.487v-8.128c0-6.159-4.986-11.151-11.137-11.151" mask="url(#d)"/>
            <path fill="#F70" d="M396.314 199.917c.925 0 1.674-.75 1.674-1.676 0-5.098 2.985-9.785 7.603-11.942.837-.393 1.2-1.39.808-2.229a1.675 1.675 0 0 0-2.225-.81c-5.792 2.705-9.534 8.585-9.534 14.981 0 .925.75 1.676 1.674 1.676" mask="url(#d)"/>
            <path fill="#933000" d="M380.623 216.707h5.855a2.236 2.236 0 1 0 0-4.473h-5.855a2.235 2.235 0 0 0-2.233 2.238c0 1.234 1 2.235 2.233 2.235M402.506 216.707h5.854a2.235 2.235 0 0 0 2.233-2.235c0-1.235-1-2.237-2.233-2.237h-5.854a2.235 2.235 0 0 0-2.233 2.237c0 1.234 1 2.235 2.233 2.235" mask="url(#d)"/>
            <path fill="#D35553" d="M392.925 228.367a2.235 2.235 0 0 0 2.233-2.236v-3.392c0-1.234-1-2.237-2.233-2.237a2.235 2.235 0 0 0-2.233 2.237v3.392c0 1.235 1 2.236 2.233 2.236" mask="url(#d)"/>
            <path fill="#CEE5FD" d="M57.61 251.011l.227-.015.277-.008c12.76-.376 23.17-10.622 23.876-23.272 2.91-2.13 4.783-5.57 4.783-9.354 0-2.493-.793-4.868-2.214-6.822.05-.711.076-1.404.076-2.083 0-18.199-14.788-33.004-32.964-33.004s-32.965 14.805-32.965 33.004c0 1.119.063 2.26.19 3.42a11.527 11.527 0 0 0-1.373 5.485c0 4.85 2.907 8.97 7.112 10.71 1.361 12.323 11.824 21.939 24.49 21.939h8.485z" mask="url(#d)"/>
            <path fill="#FFF" d="M53.073 251.011l.227-.015.277-.008c12.76-.376 23.17-10.622 23.877-23.272 2.91-2.13 4.783-5.57 4.783-9.354 0-2.493-.793-4.868-2.215-6.822.051-.711.076-1.404.076-2.083 0-18.199-14.787-33.004-32.963-33.004-18.177 0-32.965 14.805-32.965 33.004 0 1.119.062 2.26.189 3.42a11.527 11.527 0 0 0-1.373 5.485c0 4.85 2.907 8.97 7.112 10.71 1.361 12.323 11.825 21.939 24.491 21.939h8.484z" mask="url(#d)"/>
            <path fill="#3D2424" d="M20.22 209.456c0 14.884 12.05 26.948 26.914 26.948 14.865 0 26.916-12.064 26.916-26.948 0-14.883-12.05-26.947-26.916-26.947-14.864 0-26.915 12.064-26.915 26.947" mask="url(#d)"/>
            <path fill="#C67336" d="M65.104 218.361a5.546 5.546 0 0 0 5.543 5.55 5.546 5.546 0 0 0 5.541-5.55 5.546 5.546 0 0 0-5.541-5.548 5.546 5.546 0 0 0-5.543 5.548" mask="url(#d)"/>
            <path fill="#F39043" d="M44.59 244.955h8.26c10.269 0 18.592-8.334 18.592-18.614v-18.26c0-10.28-8.323-18.615-18.592-18.615h-8.26c-10.27 0-18.593 8.335-18.593 18.615v18.26c0 10.28 8.324 18.614 18.592 18.614" mask="url(#d)"/>
            <path fill="#C67336" d="M26.001 208.085v18.256c0 10.276 8.324 18.612 18.588 18.612h8.259c.1 0 .199 0 .299-.012-10.12-.155-18.279-8.424-18.279-18.6v-18.256c0-10.187 8.159-18.455 18.279-18.61-.1-.011-.2-.011-.3-.011H44.59c-10.264 0-18.588 8.333-18.588 18.62" mask="url(#d)"/>
            <path fill="#C67336" d="M19.035 218.361a5.546 5.546 0 0 0 5.542 5.55 5.546 5.546 0 0 0 5.542-5.55 5.546 5.546 0 0 0-5.542-5.548 5.546 5.546 0 0 0-5.542 5.548" mask="url(#d)"/>
            <path fill="#0F1112" d="M64.338 220.253H65.4a2.218 2.218 0 0 0 2.218-2.219c0-1.226-.992-2.219-2.218-2.219h-1.063a2.218 2.218 0 0 0-2.217 2.22c0 1.225.992 2.218 2.217 2.218" mask="url(#d)"/>
            <path fill="#AB6130" d="M44.663 229.456c0 5.448 4.412 9.853 9.843 9.853s9.831-4.405 9.831-9.853H44.663z" mask="url(#d)"/>
            <path fill="#3D2424" d="M62.218 213.116h5.813a2.219 2.219 0 0 0 0-4.438h-5.813a2.217 2.217 0 0 0-2.216 2.218c0 1.227.992 2.22 2.216 2.22M40.492 213.116h5.814a2.218 2.218 0 0 0 2.216-2.22 2.217 2.217 0 0 0-2.216-2.218h-5.814a2.217 2.217 0 0 0-2.216 2.218c0 1.227.992 2.22 2.216 2.22" mask="url(#d)"/>
            <path fill="#0F1112" d="M43.278 220.253h1.063a2.218 2.218 0 0 0 2.217-2.219c0-1.226-.992-2.219-2.217-2.219h-1.063a2.219 2.219 0 0 0 0 4.438" mask="url(#d)"/>
            <path fill="#C67336" d="M55.818 224.693a2.219 2.219 0 0 0 2.217-2.22v-3.368a2.218 2.218 0 0 0-4.434 0v3.368c0 1.227.992 2.22 2.217 2.22" mask="url(#d)"/>
            <path fill="#3D2424" d="M23.097 210.127h11.771v-3.207a3.816 3.816 0 0 1 3.813-3.818h28.953a3.817 3.817 0 0 1 3.813 3.818v3.207h1.451c0-12.7-10.281-22.994-22.965-22.994h-3.87c-12.683 0-22.966 10.295-22.966 22.994M24.892 217.264a7.133 7.133 0 0 0 7.13-7.136h-7.13v7.136z" mask="url(#d)"/>
            <path fill="#8C5B5B" d="M27.427 200.293c.586 0 1.155-.31 1.459-.861a21.05 21.05 0 0 1 6.87-7.422 1.668 1.668 0 0 0 .479-2.307 1.662 1.662 0 0 0-2.303-.48 24.398 24.398 0 0 0-7.96 8.603 1.666 1.666 0 0 0 1.455 2.467" mask="url(#d)"/>
            <path fill="#E6E6E6" d="M46.267 231.366h16.855v-1.91H46.267z" mask="url(#d)"/>
            <path fill="#CEE5FD" d="M235.209 411.898c-33.814 0-50.437-9.405-50.595-9.501-5.757-3.448-8.6-9.366-7.794-16.231.72-6.089 5.182-11.323 10.909-13.559a14.901 14.901 0 0 1-.574-4.083v-.896a7.414 7.414 0 0 1-.008-.351v-1.075l.01-.163-.002-1.005c0-6.67 4.377-12.34 10.408-14.277a15.665 15.665 0 0 1-.636-4.427v-1.622c0-8.779 7.133-15.922 15.901-15.922h2.185a14.957 14.957 0 0 1 12.588-6.889h15.359c5.107 0 9.772 2.63 12.491 6.747 8.425.392 15.158 7.376 15.158 15.905v1.62c0 1.8-.305 3.566-.884 5.227 5.655 2.561 9.598 8.262 9.598 14.868v.864c0 1.909-.332 3.775-.962 5.526 5.687 2.407 9.83 7.758 10.3 14.12.544 7.461-3.942 14.392-10.936 16.953-9.712 4.288-29.338 8.169-41.386 8.169l-1.13.002" mask="url(#d)"/>
            <path fill="#FFF" d="M230.88 411.898c-33.813 0-50.437-9.405-50.595-9.501-5.757-3.448-8.6-9.366-7.793-16.231.72-6.089 5.18-11.323 10.907-13.559a14.901 14.901 0 0 1-.573-4.083v-.896a7.414 7.414 0 0 1-.009-.351v-1.075l.01-.163v-1.005c0-6.67 4.377-12.34 10.406-14.277a15.665 15.665 0 0 1-.635-4.427v-1.622c0-8.779 7.133-15.922 15.902-15.922h2.184a14.957 14.957 0 0 1 12.588-6.889h15.36c5.107 0 9.77 2.63 12.49 6.747 8.425.392 15.158 7.376 15.158 15.905v1.62c0 1.8-.305 3.566-.883 5.227 5.655 2.561 9.597 8.262 9.597 14.868v.864c0 1.909-.332 3.775-.962 5.526 5.688 2.407 9.831 7.758 10.3 14.12.543 7.461-3.942 14.392-10.935 16.953-9.713 4.288-29.34 8.169-41.388 8.169l-1.13.002" mask="url(#d)"/>
            <path fill="#391421" d="M231.996 406.117c11.748.004 30.88-4 39.253-7.757 4.521-1.576 7.703-6.01 7.328-11.158-.427-5.781-5.487-10.132-11.283-10.132h-1.16c-1.013 0-1.438-1.25-.672-1.89a10.48 10.48 0 0 0 3.761-8.051v-.866c0-5.811-4.709-10.526-10.515-10.526h-1.044c-1.012 0-1.438-1.237-.67-1.888a10.13 10.13 0 0 0 3.514-7.68v-1.62c0-5.6-4.538-10.144-10.131-10.144H236.89c-2.994 0-5.668 1.3-7.522 3.36a10.077 10.077 0 0 0-7.382-3.2H208.5c-5.592 0-10.131 4.533-10.131 10.143v1.621c0 2.422.852 4.651 2.27 6.39.297.363.436.789.436 1.205 0 1.013-.81 1.973-1.971 1.973-5.806 0-10.514 4.703-10.514 10.516v.865c0 2.56.916 4.896 2.429 6.709.308.373.446.8.446 1.226 0 1.035-.83 2.016-2.013 2.016-5.348 0-10.6 4.299-11.228 9.61-.522 4.448 1.113 8.256 5.028 10.602.615.368 16.587 8.878 48.744 8.676" mask="url(#d)"/>
            <path fill="#EC9184" d="M231.996 405.042a5.288 5.288 0 0 0 5.284-5.292v-8.197h-10.568v8.197a5.288 5.288 0 0 0 5.284 5.292M248.276 367.758a5.33 5.33 0 0 0 5.327 5.332 5.33 5.33 0 0 0 5.326-5.332 5.33 5.33 0 0 0-5.326-5.334 5.33 5.33 0 0 0-5.327 5.334" mask="url(#d)"/>
            <path fill="#FCBB95" d="M235.743 339.989h-7.241c-10.551 0-19.104 8.564-19.104 19.127v15.846c0 10.564 8.553 19.127 19.104 19.127h7.241c10.552 0 19.104-8.563 19.104-19.127v-15.846c0-10.563-8.552-19.127-19.104-19.127" mask="url(#d)"/>
            <path fill="#EC9184" d="M234.017 394.089c-1.357.264-3.183.265-4.624.265-12.547 0-22.47-10.447-22.47-23.01v-8.597c0-12.563 10.182-22.758 22.73-22.758 1.442 0 2.847.132 4.203.396-10.542 1.972-18.527 11.242-18.527 22.362v8.597c0 11.119 8.145 20.785 18.688 22.745" mask="url(#d)"/>
            <path fill="#74314A" d="M256.247 347.771a1.599 1.599 0 0 1-1.598-1.599v-1.62c0-2.359-1.918-4.28-4.274-4.28a1.6 1.6 0 1 1 0-3.2c4.119.001 7.47 3.357 7.47 7.48v1.62c0 .884-.715 1.6-1.598 1.6m-73.79 41.17a1.599 1.599 0 0 1-1.588-1.789c.46-3.87 4.468-7.261 8.58-7.261a1.599 1.599 0 0 1 0 3.2c-2.464 0-5.14 2.197-5.406 4.439a1.6 1.6 0 0 1-1.585 1.41m91.863.174c-.83 0-1.53-.642-1.592-1.483-.191-2.632-2.578-4.694-5.433-4.694h-1.166c-2.94 0-5.492-1.785-6.497-4.548a6.979 6.979 0 0 1 2.067-7.704 4.645 4.645 0 0 0 1.662-3.56v-.864a4.657 4.657 0 0 0-4.65-4.656 1.6 1.6 0 0 1 0-3.201c4.326 0 7.846 3.524 7.846 7.857v.864a7.83 7.83 0 0 1-2.805 6.008 3.773 3.773 0 0 0-1.117 4.16 3.682 3.682 0 0 0 3.494 2.444h1.166c4.521 0 8.308 3.365 8.621 7.66a1.6 1.6 0 0 1-1.596 1.717" mask="url(#d)"/>
            <path fill="#FCBB95" d="M233.279 402.37a2.665 2.665 0 0 1-2.664-2.667v-.407a2.665 2.665 0 0 1 2.664-2.666 2.665 2.665 0 0 1 2.663 2.666v.407a2.665 2.665 0 0 1-2.663 2.666" mask="url(#d)"/>
            <path fill="#C67336" d="M204 367.758a5.33 5.33 0 0 0 5.325 5.332 5.33 5.33 0 0 0 5.328-5.332 5.33 5.33 0 0 0-5.328-5.334 5.33 5.33 0 0 0-5.326 5.334" mask="url(#d)"/>
            <path fill="#0F1112" d="M248.562 369.575a2.132 2.132 0 0 1-2.13-2.133v-1.327a2.131 2.131 0 1 1 4.261 0v1.327a2.132 2.132 0 0 1-2.13 2.133" mask="url(#d)"/>
            <path fill="#AF4646" d="M228.63 378.42c0 5.236 4.24 9.47 9.46 9.47 5.22 0 9.45-4.234 9.45-9.47h-18.91z" mask="url(#d)"/>
            <path fill="#0F1112" d="M227.256 369.575a2.132 2.132 0 0 1-2.13-2.133v-1.327a2.131 2.131 0 1 1 4.261 0v1.327a2.132 2.132 0 0 1-2.13 2.133M251.09 362.717h-5.587a2.132 2.132 0 0 1 0-4.267h5.587c1.177 0 2.13.955 2.13 2.134a2.132 2.132 0 0 1-2.13 2.133M230.21 362.717h-5.589a2.131 2.131 0 0 1-2.13-2.133c0-1.179.955-2.134 2.13-2.134h5.588a2.132 2.132 0 0 1 0 4.267" mask="url(#d)"/>
            <path fill="#EC9184" d="M239.352 373.842a2.132 2.132 0 0 1-2.131-2.133v-3.237a2.132 2.132 0 1 1 4.261 0v3.237a2.132 2.132 0 0 1-2.13 2.133" mask="url(#d)"/>
            <path fill="#391421" d="M223.273 349.586h15.358c5.08 0 9.2-4.124 9.2-9.21v-3.49c0-5.087-4.12-9.211-9.2-9.211h-15.358c-5.08 0-9.198 4.124-9.198 9.21v3.491c0 5.086 4.118 9.21 9.198 9.21" mask="url(#d)"/>
            <path fill="#391421" d="M224.317 356.05h15.358c5.08 0 9.198-4.123 9.198-9.209v-3.49c0-5.087-4.117-9.211-9.198-9.211h-15.358c-5.081 0-9.198 4.124-9.198 9.21v3.491c0 5.086 4.117 9.21 9.198 9.21M197.797 377.734h12.162c5.08 0 9.198-4.123 9.198-9.209v-3.491c0-5.086-4.118-9.21-9.198-9.21h-12.162c-5.08 0-9.199 4.124-9.199 9.21v3.491c0 5.086 4.119 9.21 9.198 9.21" mask="url(#d)"/>
            <path fill="#391421" d="M209.037 358.563h8.966c5.081 0 9.2-4.122 9.2-9.208v-3.491c0-5.086-4.119-9.21-9.2-9.21h-8.966c-5.08 0-9.198 4.124-9.198 9.21v3.49c0 5.087 4.117 9.21 9.198 9.21" mask="url(#d)"/>
            <path fill="#74314A" d="M243.568 339.421a1.598 1.598 0 0 1-1.598-1.6c0-2.36-1.917-4.279-4.273-4.279h-13.49a1.599 1.599 0 0 1 0-3.2h13.49c4.118 0 7.47 3.355 7.47 7.48 0 .883-.716 1.599-1.599 1.599" mask="url(#d)"/>
            <path fill="#E6E6E6" d="M230.172 380.255h16.2v-1.836h-16.2z" mask="url(#d)"/>
            <path fill="#CEE5FD" d="M232.802 102.77c-.368 0-.742-.007-1.113-.02-15.92-.58-28.87-14.296-28.87-30.576V65.26a8.5 8.5 0 0 1 .02-.58 11.994 11.994 0 0 1-.402-.479c-3.876-1.92-6.48-5.938-6.48-10.408 0-3.236 1.37-6.266 3.64-8.415v-5.11c0-2.737.857-5.274 2.33-7.35-3.035-3.991-4.725-8.906-4.725-14.128v-6.056h11.68C211.374 5.724 218.067.69 225.91.69c6.8 0 12.819 3.733 15.905 9.49 13.6 1.625 24.179 13.247 24.179 27.294v7.897a11.611 11.611 0 0 1 3.646 8.422c0 4.479-2.61 8.5-6.492 10.416a12.82 12.82 0 0 1-.382.455c.013.197.021.395.021.596v7.489c0 16.553-13.45 30.02-29.986 30.02" mask="url(#d)"/>
            <path fill="#FFF" d="M228.266 102.77c-.369 0-.743-.007-1.113-.02-15.92-.58-28.87-14.296-28.87-30.576V65.26a8.5 8.5 0 0 1 .02-.58 11.994 11.994 0 0 1-.403-.479c-3.875-1.92-6.479-5.938-6.479-10.408 0-3.236 1.37-6.266 3.64-8.415v-5.11c0-2.737.856-5.274 2.329-7.35-3.034-3.991-4.725-8.906-4.725-14.128v-6.056h11.68C206.838 5.724 213.53.69 221.375.69c6.8 0 12.819 3.733 15.904 9.49 13.6 1.625 24.18 13.247 24.18 27.294v7.897a11.611 11.611 0 0 1 3.646 8.422c0 4.479-2.61 8.5-6.492 10.416a12.82 12.82 0 0 1-.382.455c.013.197.02.395.02.596v7.489c0 16.553-13.45 30.02-29.985 30.02" mask="url(#d)"/>
            <path fill="#0F1112" d="M248.754 62.884h-40.989a6.66 6.66 0 0 1-6.656-6.664V40.27a6.66 6.66 0 0 1 6.656-6.664h40.989a6.66 6.66 0 0 1 6.656 6.664v15.95a6.66 6.66 0 0 1-6.656 6.664" mask="url(#d)"/>
            <path fill="#0F1112" d="M249.115 47.347h-32.83a6.298 6.298 0 0 1-6.295-6.302v-18.7a6.298 6.298 0 0 1 6.295-6.302h17.72c11.821 0 21.404 9.595 21.404 21.43v3.572a6.298 6.298 0 0 1-6.294 6.302" mask="url(#d)"/>
            <path fill="#FF8851" d="M208.554 53.794a5.545 5.545 0 0 1-5.543 5.548 5.545 5.545 0 0 1-5.542-5.548 5.546 5.546 0 0 1 5.542-5.549 5.546 5.546 0 0 1 5.543 5.549M259.057 53.794a5.545 5.545 0 0 1-5.543 5.548 5.545 5.545 0 0 1-5.542-5.548 5.546 5.546 0 0 1 5.542-5.549 5.546 5.546 0 0 1 5.543 5.549" mask="url(#d)"/>
            <path fill="#FFB899" d="M250.035 64.917c0 12.042-9.754 21.796-21.77 21.796-12.027 0-21.77-9.754-21.77-21.796l.012-23.771c.11-11.942 9.81-21.574 21.758-21.574 11.938 0 21.648 9.632 21.759 21.574l.01 23.77" mask="url(#d)"/>
            <path fill="#FCBB95" d="M250.035 64.917c0 12.042-9.754 21.796-21.77 21.796-12.027 0-21.77-9.754-21.77-21.796l.012-23.771c.11-11.942 9.81-21.574 21.758-21.574 11.938 0 21.648 9.632 21.759 21.574l.01 23.77" mask="url(#d)"/>
            <path fill="#353F42" d="M249.986 63.042c1.224 0 2.216.994 2.216 2.22v7.487c0 13.538-11.21 24.447-24.83 23.95-12.961-.474-23.04-11.539-23.04-24.524v-6.912c0-1.227.992-2.22 2.216-2.22h43.438z" mask="url(#d)"/>
            <path fill="#FFB899" d="M206.506 41.146v.599c-.01-.122-.01-.256-.01-.378 0-.077 0-.144.01-.221M250.035 41.367c0 .123 0 .255-.011.378v-.6c.01.078.01.145.01.222" mask="url(#d)"/>
            <path fill="#0F0F30" d="M218.09 43h-5.814a2.218 2.218 0 0 1-2.216-2.22c0-1.226.992-2.22 2.216-2.22h5.814c1.224 0 2.216.994 2.216 2.22 0 1.227-.992 2.22-2.216 2.22M244.249 43h-5.812a2.218 2.218 0 0 1-2.217-2.22c0-1.226.992-2.22 2.217-2.22h5.812c1.224 0 2.216.994 2.216 2.22 0 1.227-.992 2.22-2.216 2.22" mask="url(#d)"/>
            <path fill="#FF8851" d="M239.641 67.058c0 6.293-5.1 11.384-11.386 11.384-6.285 0-11.37-5.09-11.37-11.384h22.756z" mask="url(#d)"/>
            <path fill="#FFF" d="M239.638 67.06c0 1.308-.222 2.562-.62 3.729H217.5a11.523 11.523 0 0 1-.619-3.73h22.756z" mask="url(#d)"/>
            <path fill="#FFDACD" d="M243.143 33.285a1.662 1.662 0 0 1-1.42-.795 12.584 12.584 0 0 0-3.752-3.891 1.665 1.665 0 0 1-.466-2.308 1.66 1.66 0 0 1 2.303-.467 15.923 15.923 0 0 1 4.75 4.926 1.666 1.666 0 0 1-1.415 2.535" mask="url(#d)"/>
            <path fill="#FF8851" d="M228.263 58.74a3.328 3.328 0 0 1-3.325-3.33v-2.491c0-1.84 1.49-3.33 3.325-3.33a3.328 3.328 0 0 1 3.325 3.33v2.49c0 1.839-1.49 3.33-3.325 3.33" mask="url(#d)"/>
            <path fill="#0F0F30" d="M217.256 48.737h-2.29a2.218 2.218 0 0 1-2.217-2.22c0-1.226.992-2.22 2.216-2.22h2.29c1.225 0 2.217.994 2.217 2.22 0 1.226-.992 2.22-2.216 2.22M241.343 48.737h-2.29a2.218 2.218 0 0 1-2.217-2.22c0-1.226.992-2.22 2.216-2.22h2.29c1.225 0 2.217.994 2.217 2.22 0 1.226-.992 2.22-2.216 2.22" mask="url(#d)"/>
            <path fill="#353F42" d="M206.496 56.046v6.997h6.988c0-3.864-3.13-6.997-6.988-6.997M250.12 56.046v6.997h-6.99c0-3.864 3.13-6.997 6.99-6.997M233.404 18.791c0 9.593-7.757 17.371-17.338 17.371-9.581 0-17.352-7.778-17.352-17.37h34.69zM209.354 18.791c0-6.65 5.379-12.044 12.02-12.044 6.642 0 12.03 5.394 12.03 12.044h-24.05z" mask="url(#d)"/>
            <path fill="#6A7C80" d="M227.54 16.017a1.66 1.66 0 0 1-1.35-.691 5.952 5.952 0 0 0-4.815-2.474 1.664 1.664 0 0 1 0-3.33 9.288 9.288 0 0 1 7.513 3.856 1.666 1.666 0 0 1-1.348 2.64" mask="url(#d)"/>
            <path fill="#8CE024" d="M298.674 209.695c0 37.617-30.457 68.112-68.029 68.112-37.571 0-68.028-30.495-68.028-68.112 0-37.616 30.457-68.11 68.028-68.11 37.572 0 68.029 30.494 68.029 68.11" mask="url(#d)"/>
            <path fill="#0F0F30" d="M271.605 271.46h-81.92a4.763 4.763 0 0 1-4.76-4.767V159.846a4.765 4.765 0 0 1 4.76-4.766h81.92a4.765 4.765 0 0 1 4.76 4.766v106.847a4.763 4.763 0 0 1-4.76 4.767" mask="url(#d)"/>
            <path fill="#5151D3" d="M271.605 264.31h-81.92a4.763 4.763 0 0 1-4.76-4.766V152.697a4.764 4.764 0 0 1 4.76-4.766h81.92a4.764 4.764 0 0 1 4.76 4.766v106.847a4.763 4.763 0 0 1-4.76 4.766" mask="url(#d)"/>
            <path fill="#0F0F30" d="M234.613 257.41a3.97 3.97 0 0 1-3.967 3.97 3.97 3.97 0 0 1-3.968-3.97 3.969 3.969 0 0 1 3.968-3.972 3.97 3.97 0 0 1 3.967 3.971" mask="url(#d)"/>
            <path fill="#7676D0" d="M229.852 155.098h-38.777a3.175 3.175 0 0 1-3.175-3.177 3.175 3.175 0 0 1 3.175-3.177h38.777a3.175 3.175 0 0 1 3.173 3.177 3.175 3.175 0 0 1-3.173 3.177" mask="url(#d)"/>
            <path fill="#4545B6" d="M276.363 152.698v106.847a4.762 4.762 0 0 1-4.76 4.765h-19.598V147.931h19.597a4.762 4.762 0 0 1 4.761 4.767" mask="url(#d)"/>
            <path fill="#FFF" d="M193.388 249.236a1.59 1.59 0 0 1-1.587-1.587v-87.026a1.59 1.59 0 0 1 1.587-1.588h74.515a1.59 1.59 0 0 1 1.587 1.588v87.026a1.59 1.59 0 0 1-1.587 1.587h-74.515z" mask="url(#d)"/>
            <path fill="#0F0F30" d="M267.903 158.24h-74.515a2.382 2.382 0 0 0-2.38 2.383v87.026a2.383 2.383 0 0 0 2.38 2.384h74.515a2.383 2.383 0 0 0 2.38-2.384v-87.026a2.382 2.382 0 0 0-2.38-2.383m0 1.588c.437 0 .794.358.794.795v87.026a.795.795 0 0 1-.794.793h-74.515a.794.794 0 0 1-.794-.793v-87.026c0-.437.356-.795.794-.795h74.515" mask="url(#d)"/>
            <path fill="#7676D0" d="M267.672 256.615h-11.8a3.175 3.175 0 0 1-3.174-3.178 3.175 3.175 0 0 1 3.174-3.177h11.8a3.175 3.175 0 0 1 3.174 3.177 3.175 3.175 0 0 1-3.174 3.178" mask="url(#d)"/>
            <path fill="#CEE5FD" d="M263.881 190.441H197.41a2.383 2.383 0 0 1-2.38-2.383v-22.834a2.382 2.382 0 0 1 2.38-2.385h66.471a2.382 2.382 0 0 1 2.38 2.385v22.834a2.383 2.383 0 0 1-2.38 2.383M226.59 244.46h-29.18a2.383 2.383 0 0 1-2.381-2.383v-44.284a2.382 2.382 0 0 1 2.38-2.383h29.18a2.382 2.382 0 0 1 2.381 2.383v44.284a2.383 2.383 0 0 1-2.38 2.383M263.881 215.067h-29.18a2.382 2.382 0 0 1-2.38-2.383v-14.891a2.382 2.382 0 0 1 2.38-2.384h29.18a2.382 2.382 0 0 1 2.38 2.384v14.89a2.382 2.382 0 0 1-2.38 2.384M263.881 244.46h-29.18a2.383 2.383 0 0 1-2.38-2.383v-20.452a2.381 2.381 0 0 1 2.38-2.382h29.18a2.381 2.381 0 0 1 2.38 2.382v20.452a2.383 2.383 0 0 1-2.38 2.383" mask="url(#d)"/>
            <path fill="#87B7DD" d="M266.263 165.225v7.452h-71.235v-7.452a2.379 2.379 0 0 1 2.38-2.383h66.475a2.379 2.379 0 0 1 2.38 2.383" mask="url(#d)"/>
            <path fill="#9595FF" d="M267.672 256.615h-.692a3.175 3.175 0 0 1-3.174-3.178 3.175 3.175 0 0 1 3.174-3.177h.692a3.175 3.175 0 0 1 3.174 3.177 3.175 3.175 0 0 1-3.174 3.178M198.115 155.098h-7.04a3.175 3.175 0 0 1-3.175-3.177 3.175 3.175 0 0 1 3.175-3.177h7.04a3.175 3.175 0 0 1 3.173 3.177 3.175 3.175 0 0 1-3.173 3.177" mask="url(#d)"/>
            <path fill="#95BEE7" d="M213.785 204.466h-10.711a1.588 1.588 0 0 1 0-3.178h10.71c.877 0 1.587.712 1.587 1.59 0 .876-.71 1.588-1.586 1.588" mask="url(#d)"/>
            <path fill="#95BEE7" d="M212.991 204.466H202.28a1.587 1.587 0 0 1-1.587-1.588c0-.878.71-1.59 1.587-1.59h10.711c.877 0 1.587.712 1.587 1.59 0 .876-.71 1.588-1.587 1.588M221.72 212.41h-19.44a1.588 1.588 0 0 1 0-3.178h19.44c.876 0 1.586.712 1.586 1.59 0 .876-.71 1.588-1.587 1.588M221.72 220.353h-19.44a1.588 1.588 0 0 1 0-3.177h19.44c.876 0 1.586.711 1.586 1.59 0 .876-.71 1.587-1.587 1.587M221.72 228.297h-19.44a1.588 1.588 0 0 1 0-3.177h19.44c.876 0 1.586.711 1.586 1.589 0 .877-.71 1.588-1.587 1.588M259.01 182.222h-56.73a1.587 1.587 0 0 1-1.587-1.588c0-.878.71-1.59 1.586-1.59h56.732c.877 0 1.586.712 1.586 1.59 0 .876-.71 1.588-1.586 1.588" mask="url(#d)"/>
            <path fill="#FFF" d="M235.558 215.067h27.467l-7.376-7.55a1.366 1.366 0 0 0-1.916-.04c-2.224 2.104-5.309 5.053-5.309 5.053l-3.763-2.392a1.646 1.646 0 0 0-1.8.023l-7.303 4.906z" mask="url(#d)"/>
            <path fill="#87B7DD" d="M245.772 206.335a1.772 1.772 0 1 0 3.543 0 1.772 1.772 0 1 0-3.543 0" mask="url(#d)"/>
            <path fill="#44B6FF" d="M229.578 127.964c-1.214 0-2.2-.987-2.2-2.203v-12.036c0-1.216.986-2.203 2.2-2.203 1.215 0 2.2.987 2.2 2.203v12.036a2.202 2.202 0 0 1-2.2 2.203" mask="url(#d)"/>
            <path fill="#44B6FF" d="M229.578 132.29a2.19 2.19 0 0 1-1.555-.646l-5.808-5.814a2.204 2.204 0 0 1 0-3.114 2.196 2.196 0 0 1 3.11 0l4.253 4.257 4.253-4.257a2.197 2.197 0 0 1 3.112 0c.859.86.859 2.254-.001 3.114l-5.808 5.814a2.19 2.19 0 0 1-1.556.646" mask="url(#d)"/>
            <path fill="#FF586B" d="M165.819 337.352c-.341 0-.688-.08-1.011-.248-26.438-13.723-47.663-34.962-61.382-61.424a2.201 2.201 0 0 1 3.905-2.03c13.299 25.652 33.875 46.241 59.502 59.544a2.202 2.202 0 0 1-1.014 4.158" mask="url(#d)"/>
            <path fill="#FF586B" d="M102.465 283.732a2.2 2.2 0 0 1-2.14-2.721l1.934-7.993a2.202 2.202 0 0 1 2.658-1.621l7.981 1.938a2.202 2.202 0 0 1-1.036 4.28l-5.844-1.419-1.417 5.852a2.2 2.2 0 0 1-2.136 1.684M158.22 339.735a2.204 2.204 0 0 1-.559-4.335l5.815-1.53-1.53-5.823a2.204 2.204 0 0 1 1.567-2.692 2.196 2.196 0 0 1 2.688 1.57l2.09 7.953a2.204 2.204 0 0 1-1.568 2.69l-7.943 2.094c-.187.05-.376.072-.56.073M295.81 336.708a2.202 2.202 0 0 1-1.015-4.158c25.621-13.314 46.186-33.914 59.472-59.574a2.203 2.203 0 0 1 2.965-.942c1.078.56 1.5 1.889.94 2.97-13.705 26.47-34.92 47.721-61.35 61.456-.324.168-.67.248-1.012.248" mask="url(#d)"/>
            <path fill="#FF586B" d="M302.667 339.625c-.172 0-.346-.02-.52-.062l-7.982-1.936a2.203 2.203 0 0 1-1.62-2.66l1.934-7.993a2.19 2.19 0 0 1 2.657-1.62 2.203 2.203 0 0 1 1.62 2.659l-1.417 5.851 5.845 1.419a2.2 2.2 0 0 1 1.619 2.658 2.2 2.2 0 0 1-2.136 1.684M358.597 283.802a2.204 2.204 0 0 1-2.126-1.644l-1.53-5.821-5.815 1.532a2.203 2.203 0 0 1-1.12-4.261l7.943-2.093a2.199 2.199 0 0 1 2.687 1.57l2.091 7.952a2.204 2.204 0 0 1-2.13 2.765" mask="url(#d)"/>
            <path fill="#8CE024" d="M139.91 220.528c-.812 0-1.593-.45-1.975-1.23a22.462 22.462 0 0 1-2.316-9.996c0-3.532.79-6.918 2.347-10.06a2.196 2.196 0 0 1 2.95-.994 2.204 2.204 0 0 1 .992 2.951 18.083 18.083 0 0 0-1.889 8.103c0 2.827.626 5.536 1.863 8.05a2.204 2.204 0 0 1-1.972 3.176M147.718 215.706c-.928 0-1.79-.594-2.092-1.526a16.653 16.653 0 0 1-.806-5.136c0-1.837.297-3.642.883-5.369a2.2 2.2 0 1 1 4.166 1.417c-.432 1.27-.65 2.6-.65 3.952 0 1.292.2 2.563.592 3.781a2.202 2.202 0 0 1-2.093 2.881M131.797 223.858a2.2 2.2 0 0 1-1.959-1.197 28.257 28.257 0 0 1-3.127-13.006c0-4.547 1.037-8.894 3.082-12.92a2.196 2.196 0 0 1 2.958-.963 2.203 2.203 0 0 1 .963 2.963 23.868 23.868 0 0 0-2.603 10.92c0 3.875.888 7.573 2.642 10.995a2.203 2.203 0 0 1-1.956 3.208M323.817 221.373a2.204 2.204 0 0 1-1.969-3.182 18.085 18.085 0 0 0 1.89-8.101c0-2.828-.628-5.536-1.865-8.051a2.204 2.204 0 0 1 1.002-2.948c1.09-.54 2.41-.09 2.946 1.002a22.448 22.448 0 0 1 2.316 9.997c0 3.53-.79 6.915-2.347 10.06a2.198 2.198 0 0 1-1.973 1.223M315.97 217.21a2.207 2.207 0 0 1-2.083-2.914c.431-1.266.649-2.595.649-3.949 0-1.294-.2-2.566-.592-3.78a2.201 2.201 0 0 1 4.187-1.358c.534 1.654.805 3.383.805 5.138 0 1.838-.297 3.644-.882 5.37a2.203 2.203 0 0 1-2.084 1.493M332 223.858a2.202 2.202 0 0 1-1.96-3.202 23.875 23.875 0 0 0 2.605-10.919c0-3.875-.888-7.575-2.642-10.997a2.204 2.204 0 0 1 .953-2.964 2.196 2.196 0 0 1 2.962.953 28.268 28.268 0 0 1 3.127 13.008c0 4.546-1.037 8.892-3.082 12.918a2.198 2.198 0 0 1-1.962 1.203M230.252 307.64c-3.529 0-6.91-.791-10.048-2.352a2.203 2.203 0 0 1-.993-2.952 2.195 2.195 0 0 1 2.95-.993 18.025 18.025 0 0 0 8.09 1.891c2.826 0 5.53-.628 8.042-1.864a2.197 2.197 0 0 1 2.946 1.002 2.204 2.204 0 0 1-1.002 2.95 22.386 22.386 0 0 1-9.985 2.317M229.995 298.428c-1.834 0-3.639-.299-5.362-.885a2.203 2.203 0 0 1 1.415-4.17c2.478.844 5.239.86 7.722.057a2.2 2.2 0 0 1 2.771 1.416 2.204 2.204 0 0 1-1.415 2.774 16.62 16.62 0 0 1-5.13.808M230.604 316.559c-4.54 0-8.882-1.039-12.902-3.087a2.203 2.203 0 0 1-.963-2.962 2.194 2.194 0 0 1 2.958-.964 23.82 23.82 0 0 0 10.907 2.607c3.871 0 7.566-.89 10.983-2.645a2.196 2.196 0 0 1 2.962.954 2.204 2.204 0 0 1-.953 2.964 28.546 28.546 0 0 1-12.992 3.133" mask="url(#d)"/>
        </g>
    </g>
</svg>
