<svg xmlns="http://www.w3.org/2000/svg" xmlns:xlink="http://www.w3.org/1999/xlink" width="792" height="517" viewBox="0 0 792 517">
    <defs>
        <path id="a" d="M.125.968h413.176v224.153H.125z"/>
        <path id="c" d="M0 364.8h641.17V.968H0z"/>
        <path id="e" d="M0 364.8h641.17V.968H0z"/>
        <path id="g" d="M.918 27.692v35.586h54.643V27.692C55.561 12.604 43.33.371 28.24.371 13.15.37.918 12.604.918 27.692z"/>
        <path id="i" d="M0 364.8h641.17V.968H0z"/>
    </defs>
    <g fill="none" fill-rule="evenodd" transform="translate(-25 -62)">
        <rect width="303" height="603" x="320" y="19" fill="#B6D8FF" rx="151.5" transform="scale(-1 1) rotate(-45 0 1458.802)"/>
        <rect width="138" height="481" x="155.679" y="81.01" fill="#B6D8FF" rx="69" transform="scale(-1 1) rotate(-45 0 863.935)"/>
        <rect width="117" height="255" x="73.831" y="155.662" fill="#B6D8FF" rx="58.5" transform="scale(-1 1) rotate(-45 0 602.637)"/>
        <rect width="155" height="260" x="555.225" y="309.544" fill="#B6D8FF" rx="77.5" transform="scale(-1 1) rotate(-45 0 1967.077)"/>
        <rect width="99" height="175" x="690.374" y="338.374" fill="#B6D8FF" rx="49.5" transform="scale(-1 1) rotate(-45 0 2212.087)"/>
        <path fill="#059ACE" d="M475.81 501.5v28.78l28.78-28.78zM570.01 501.5v47.84c-10.58-3.73-20.5-9.82-28.96-18.28-8.61-8.62-14.78-18.76-18.48-29.56h47.44zM680.21 501.5l-29.56 29.56c-19.76 19.75-47.53 26.61-72.84 20.57V501.5h102.4z"/>
        <path fill="#2F3F62" d="M577.81 501.5v50.13a74.226 74.226 0 0 1-7.8-2.29V501.5h7.8z"/>
        <path fill="#059ACE" d="M330.48 501.5v72.03c-26.36-6.27-51.36-19.69-71.93-40.25A151.507 151.507 0 0 1 236.28 505l.003-20 94.197 16.5zM139.24 501.5a68.2 68.2 0 0 1-14.56 6.61v-6.61h14.56z"/>
        <path fill="#2F3F62" d="M236.28 501.5v3.5c-.71-1.16-1.4-2.33-2.08-3.5h2.08zM124.68 501.5v6.61a69.312 69.312 0 0 1-34.68 1.9v-8.51h34.68z"/>
        <g>
            <g transform="translate(82 185.232)">
                <g transform="translate(111.6)">
                    <mask id="b" fill="#fff">
                        <use xlink:href="#a"/>
                    </mask>
                    <path fill="#E2F1FF" d="M.125 225.121V8.168c0-3.975 3.224-7.2 7.2-7.2h398.776a7.2 7.2 0 0 1 7.2 7.2v216.953H.125z" mask="url(#b)"/>
                </g>
                <mask id="d" fill="#fff">
                    <use xlink:href="#c"/>
                </mask>
                <path fill="#FFF" d="M123.725 210.41H512.9V12.97H123.725z" mask="url(#d)"/>
                <g mask="url(#d)">
                    <path fill="#A6D3FF" d="M139.889 125.21h356.847V57.867H139.89z"/>
                    <path fill="#FFF" d="M300.613 77.47h-79.732a2.4 2.4 0 0 1 0-4.8h79.732a2.4 2.4 0 0 1 0 4.8M207.681 77.47h-39.668a2.4 2.4 0 0 1 0-4.8h39.668a2.4 2.4 0 0 1 0 4.8M468.613 93.67h-56.532a2.4 2.4 0 0 1 0-4.8h56.532a2.4 2.4 0 0 1 0 4.8M397.281 93.67h-66a2.4 2.4 0 0 1 0-4.8h66a2.4 2.4 0 0 1 0 4.8M315.28 93.67h-42.799a2.4 2.4 0 0 1 0-4.8h42.8a2.4 2.4 0 0 1 0 4.8M258.48 93.67h-90.467a2.4 2.4 0 0 1 0-4.8h90.468a2.4 2.4 0 0 1 0 4.8M468.613 109.87H364.281a2.4 2.4 0 0 1 0-4.8h104.332a2.4 2.4 0 0 1 0 4.8M349.68 109.87h-91.2a2.4 2.4 0 0 1 0-4.8h91.2a2.4 2.4 0 0 1 0 4.8M244.081 109.87h-52.8a2.4 2.4 0 0 1 0-4.8h52.8a2.4 2.4 0 0 1 0 4.8M178.88 109.87h-10.867a2.4 2.4 0 0 1 0-4.8h10.868a2.4 2.4 0 0 1 0 4.8"/>
                </g>
                <g mask="url(#d)">
                    <path fill="#74B4FF" d="M123.725 40.967H512.9V12.97H123.725z"/>
                    <path fill="#FFF" d="M501.03 26.967a7.95 7.95 0 1 1-15.899 0 7.95 7.95 0 0 1 15.9 0"/>
                    <path fill="#74B4FF" d="M496.82 32.073h-7.479c-.677 0-1.187-.643-1.009-1.297a4.926 4.926 0 0 1 4.748-3.625 4.928 4.928 0 0 1 4.75 3.625c.178.654-.332 1.297-1.01 1.297M495.416 24.198a2.336 2.336 0 0 0-4.67 0 2.335 2.335 0 1 0 4.67 0"/>
                    <path fill="#F4F4F4" d="M467.557 29.47H427.89a2.4 2.4 0 0 1 0-4.8h39.668a2.4 2.4 0 0 1 0 4.8"/>
                </g>
                <g mask="url(#d)">
                    <path fill="#A6D3FF" d="M139.889 210.41h168.666v-66.94H139.889z"/>
                    <path fill="#74B4FF" d="M139.89 210.41h168.665l-49.79-44.774a8.678 8.678 0 0 0-11.207-.337l-39.9 31.763-19.82-12.581a8.675 8.675 0 0 0-9.484.119l-38.465 25.81z"/>
                    <path fill="#FFF" d="M189.89 161.6a6.117 6.117 0 1 0 12.235-.002 6.117 6.117 0 0 0-12.234.002"/>
                </g>
                <g mask="url(#d)">
                    <path fill="#A6D3FF" d="M328.07 210.41h168.666v-66.94H328.07z"/>
                    <path fill="#74B4FF" d="M427.813 162.006h-23.332a2.4 2.4 0 0 1 0-4.8h23.332a2.4 2.4 0 0 1 0 4.8M387.947 162.006h-39.865a2.4 2.4 0 0 1 0-4.8h39.865a2.4 2.4 0 0 1 0 4.8M475.813 179.406h-35.832a2.4 2.4 0 0 1 0-4.8h35.832a2.4 2.4 0 0 1 0 4.8M427.812 179.406h-79.73a2.4 2.4 0 0 1 0-4.8h79.73a2.4 2.4 0 0 1 0 4.8M475.813 196.806H348.081a2.4 2.4 0 0 1 0-4.8h127.732a2.4 2.4 0 0 1 0 4.8"/>
                </g>
                <path fill="#A6D3FF" d="M94.976 243.462H541.65v-20.74H94.976z" mask="url(#d)"/>
                <path fill="#E2F1FF" d="M216.599 31.953h-73.11a3.6 3.6 0 0 1-3.6-3.6v-2.77a3.6 3.6 0 0 1 3.6-3.6h73.11a3.6 3.6 0 0 1 3.6 3.6v2.77a3.6 3.6 0 0 1-3.6 3.6" mask="url(#d)"/>
            </g>
            <g transform="translate(82 185.232)">
                <path fill="#E0D5CB" d="M393.575 6.272v49.392h9.096c7.836 0 14.196-6.36 14.196-14.196V20.48c0-7.848-6.36-14.208-14.196-14.208h-9.096z"/>
                <path fill="#E0D5CB" d="M345.976 55.663h56.691c7.844 0 14.201-6.357 14.201-14.2V20.475c0-7.842-6.357-14.201-14.2-14.201h-56.692c-7.843 0-14.201 6.359-14.201 14.2v20.987c0 7.844 6.358 14.201 14.2 14.201"/>
                <path fill="#D7C6BB" d="M332.864 46.915c2.136 5.136 7.2 8.748 13.116 8.748h56.688a14.17 14.17 0 0 0 13.104-8.748h-82.908zM349.431 66.264c5.859 0 10.6-4.741 10.6-10.6h-10.6v10.6z"/>
                <path fill="#B9958E" d="M386.08 25.797h-19.5a2.4 2.4 0 0 1 0-4.8h19.5a2.4 2.4 0 0 1 0 4.8M402.73 25.797h-9.15a2.4 2.4 0 0 1 0-4.8h9.15a2.4 2.4 0 0 1 0 4.8M377.38 40.197h-31.05a2.4 2.4 0 0 1 0-4.8h31.05a2.4 2.4 0 0 1 0 4.8M402.73 40.197h-17.7a2.4 2.4 0 0 1 0-4.8h17.7a2.4 2.4 0 0 1 0 4.8"/>
                <path fill="#F4F4F3" d="M336.792 18.917a6.834 6.834 0 1 0 13.668 0 6.834 6.834 0 1 0-13.668 0"/>
                <path fill="#B9958E" d="M358.032 25.797h-11.7a2.4 2.4 0 0 1 0-4.8h11.7a2.4 2.4 0 0 1 0 4.8"/>
                <path fill="#FF8C8A" d="M175.482 224.438a7.449 7.449 0 0 0-10.506-.787 7.45 7.45 0 1 0 10.506.787"/>
                <path fill="#FF8C8A" d="M164.257 232.411c-.59 0-1.177-.247-1.594-.73l-1.854-2.155a2.102 2.102 0 0 1 3.185-2.74l1.854 2.155a2.1 2.1 0 0 1-1.591 3.47M165.972 227.796c-.59 0-1.177-.247-1.594-.73l-1.854-2.154a2.101 2.101 0 0 1 3.184-2.74l1.855 2.154a2.101 2.101 0 0 1-1.591 3.47M170.894 226.91c-.59 0-1.177-.248-1.593-.73l-6.422-7.463a2.101 2.101 0 0 1 3.185-2.74l6.421 7.462a2.101 2.101 0 0 1-1.59 3.47M175.8 229.313a2.1 2.1 0 0 1-2.068-1.745l-.91-5.317a2.099 2.099 0 0 1 1.714-2.424 2.104 2.104 0 0 1 2.425 1.713l.911 5.318a2.1 2.1 0 0 1-2.072 2.455"/>
                <path fill="#2F5A94" d="M93.475 268.082a8.395 8.395 0 0 1-7.17-4.012l-13.653-22.275a8.4 8.4 0 0 1 2.773-11.551c3.955-2.428 9.127-1.184 11.551 2.77l13.653 22.277a8.4 8.4 0 0 1-2.772 11.551 8.354 8.354 0 0 1-4.382 1.24"/>
                <path fill="#933000" d="M237.749 197.665c0 11.117-9.012 20.128-20.129 20.128s-20.127-9.011-20.127-20.128 9.01-20.129 20.127-20.129c11.117 0 20.129 9.012 20.129 20.13"/>
                <path fill="#4BAEAE" d="M227.508 287.555h-54.644v-35.586c0-15.089 12.232-27.323 27.321-27.323 15.09 0 27.323 12.234 27.323 27.323v35.586z"/>
                <path fill="#37807F" d="M206.67 242.664c5.892 9.524 11.21 18.707 20.838 33.43V251.97c0-10.67-6.12-19.905-15.038-24.402-7.55 1.967-7.739 11.244-5.8 15.097"/>
                <path fill="#DB5100" d="M198.29 194.136c0 9.166-7.433 16.598-16.6 16.598-9.166 0-16.598-7.432-16.598-16.598 0-9.168 7.432-16.6 16.599-16.6 9.166 0 16.598 7.432 16.598 16.6"/>
                <path fill="#E95E5E" d="M198.13 235.019a5.953 5.953 0 0 1-5.951-5.954v-9.222h11.904v9.222a5.952 5.952 0 0 1-5.952 5.954"/>
                <path fill="#FF8C8A" d="M196.687 232.012a3 3 0 0 1-3-3v-.458a3 3 0 1 1 6 0v.458a3 3 0 0 1-3 3"/>
                <path fill="#E95E5E" d="M229.667 193.071a6 6 0 1 1-12 0 6 6 0 0 1 12 0"/>
                <path fill="#FF8C8A" d="M179.793 193.071a6 6 0 1 1-12 0 6 6 0 0 1 12 0"/>
                <mask id="f" fill="#fff">
                    <use xlink:href="#e"/>
                </mask>
                <path fill="#DB5100" d="M171.023 191.092h20.2V171.67h-20.2z" mask="url(#f)"/>
                <path fill="#DB5100" d="M205.367 172.627c0 9.483-7.688 17.173-17.173 17.173-9.484 0-17.172-7.69-17.172-17.173 0-9.484 7.688-17.173 17.172-17.173 9.485 0 17.173 7.69 17.173 17.173" mask="url(#f)"/>
                <path fill="#933000" d="M205.367 172.627c0-8.171-5.71-14.994-13.356-16.732-8.474 7.05-13.724 18.6-9.095 33.45 1.02.189 4.205.455 5.278.455 9.485 0 17.173-7.69 17.173-17.173" mask="url(#f)"/>
                <path fill="#FF8C8A" d="M201.495 221.827h-7.93c-10.92 0-19.772-8.853-19.772-19.773V192.4c0-10.92 8.853-19.772 19.772-19.772h7.93c10.92 0 19.773 8.852 19.773 19.772v9.655c0 10.92-8.853 19.773-19.773 19.773" mask="url(#f)"/>
                <path fill="#E95E5E" d="M221.271 192.403v9.648c0 10.92-8.856 19.778-19.776 19.778h-4.8c10.92 0 19.776-8.858 19.776-19.778v-9.648c0-10.92-8.856-19.774-19.776-19.774h4.8c10.92 0 19.776 8.854 19.776 19.774" mask="url(#f)"/>
                <path fill="#DB5100" d="M230.416 167.575c0 11.593-9.397 20.99-20.99 20.99-11.592 0-20.99-9.397-20.99-20.99 0-11.592 9.398-20.99 20.99-20.99 11.593 0 20.99 9.398 20.99 20.99" mask="url(#f)"/>
                <path fill="#933000" d="M222.13 195.084a7.719 7.719 0 0 1-7.718-7.719h7.718v7.719z" mask="url(#f)"/>
                <path fill="#DB5100" d="M224.392 167.575h-35.956c0 11.43 9.266 20.696 20.697 20.696h24.097v-11.858a8.839 8.839 0 0 0-8.838-8.838" mask="url(#f)"/>
                <path fill="#F70" d="M193.49 169.375a1.8 1.8 0 0 1-1.8-1.8c0-6.868 4.023-13.178 10.248-16.081a1.8 1.8 0 1 1 1.52 3.261c-4.963 2.315-8.169 7.346-8.169 12.82a1.8 1.8 0 0 1-1.8 1.8" mask="url(#f)"/>
                <path fill="#0F0F30" d="M185.061 194.083a1.799 1.799 0 0 1-1.494-.792.591.591 0 0 0-.497-.267c-.2 0-.386.1-.499.267a1.8 1.8 0 1 1-2.983-2.016 4.196 4.196 0 0 1 3.482-1.85c1.397 0 2.698.69 3.481 1.85a1.802 1.802 0 0 1-1.49 2.808M207.861 194.083a1.799 1.799 0 0 1-1.494-.792.591.591 0 0 0-.497-.267c-.2 0-.386.1-.499.267a1.8 1.8 0 1 1-2.983-2.016 4.196 4.196 0 0 1 3.482-1.85c1.397 0 2.698.69 3.481 1.85a1.802 1.802 0 0 1-1.49 2.808" mask="url(#f)"/>
                <path fill="#933000" d="M186.516 187.4h-6.292a2.4 2.4 0 0 1 0-4.8h6.292a2.4 2.4 0 0 1 0 4.8M210.037 187.4h-6.293a2.4 2.4 0 0 1 0-4.8h6.293a2.4 2.4 0 0 1 0 4.8" mask="url(#f)"/>
                <path fill="#AF4646" d="M184.222 205.08c0 5.893 4.776 10.657 10.656 10.657 5.88 0 10.644-4.764 10.644-10.656h-21.3z" mask="url(#f)"/>
                <path fill="#E6E6E6" d="M185.748 207.146h18.248v-2.066h-18.248z" mask="url(#f)"/>
                <path fill="#D35553" d="M194.646 199.917a2.4 2.4 0 0 1-2.4-2.4v-3.642a2.4 2.4 0 0 1 4.8 0v3.642a2.4 2.4 0 0 1-2.4 2.4" mask="url(#f)"/>
                <path fill="#893300" d="M126.684 262.355c-17.546 0-31.77-14.225-31.77-31.771v-51.462c0-17.547 14.224-31.771 31.77-31.771s31.77 14.224 31.77 31.77v51.463c0 17.546-14.224 31.771-31.77 31.771" mask="url(#f)"/>
                <path fill="#2F3F62" d="M148.049 270.755a8.4 8.4 0 0 1-8.4-8.4v-25.692a8.4 8.4 0 1 1 16.8 0v25.692a8.4 8.4 0 0 1-8.4 8.4" mask="url(#f)"/>
                <path fill="#2F3F62" d="M148.049 295.955a8.4 8.4 0 0 1-8.4-8.4v-25.692a8.4 8.4 0 1 1 16.8 0v25.692a8.4 8.4 0 0 1-8.4 8.4" mask="url(#f)"/>
                <path fill="#5A6D94" d="M149.693 286.841h-43.089v-45.038c0-11.898 9.646-21.544 21.544-21.544 11.9 0 21.545 9.646 21.545 21.544v45.038z" mask="url(#f)"/>
                <path fill="#FF8851" d="M149.37 192.284a6 6 0 1 0 12 0 6 6 0 0 0-12 0M130.707 230.63a5.953 5.953 0 0 0 5.952-5.952v-9.223h-11.904v9.223a5.952 5.952 0 0 0 5.952 5.952" mask="url(#f)"/>
                <path fill="#FFB899" d="M132.15 227.624a3 3 0 0 1-3-3v-.457a3 3 0 1 1 6 0v.457a3 3 0 0 1-3 3M133.418 163.44c-12.543 0-22.71 10.167-22.71 22.71v8.578c0 12.543 10.167 22.711 22.71 22.711 12.542 0 22.71-10.168 22.71-22.71v-8.58c0-12.542-10.168-22.71-22.71-22.71" mask="url(#f)"/>
                <path fill="#FF8851" d="M137.62 217.04c-1.356.264-2.76.396-4.2.396-12.54 0-22.716-10.164-22.716-22.704v-8.58c0-12.539 10.176-22.716 22.716-22.716 1.44 0 2.844.132 4.2.396-10.536 1.968-18.516 11.22-18.516 22.32v8.58c0 11.1 7.98 20.352 18.516 22.308" mask="url(#f)"/>
                <path fill="#FF8851" d="M101.895 192.284a6 6 0 1 0 12 0 6 6 0 0 0-12 0" mask="url(#f)"/>
                <path fill="#561C00" d="M152.54 186.612h-6.294a2.4 2.4 0 0 1 0-4.8h6.293a2.4 2.4 0 0 1 0 4.8" mask="url(#f)"/>
                <path fill="#0F0F30" d="M149.693 194.33a2.4 2.4 0 0 1-2.4-2.4v-1.493a2.4 2.4 0 0 1 4.8 0v1.493a2.4 2.4 0 0 1-2.4 2.4" mask="url(#f)"/>
                <path fill="#561C00" d="M129.019 186.612h-6.294a2.4 2.4 0 0 1 0-4.8h6.294a2.4 2.4 0 0 1 0 4.8" mask="url(#f)"/>
                <path fill="#0F0F30" d="M125.693 194.33a2.4 2.4 0 0 1-2.4-2.4v-1.493a2.4 2.4 0 0 1 4.8 0v1.493a2.4 2.4 0 0 1-2.4 2.4" mask="url(#f)"/>
                <path fill="#FF8851" d="M138.44 199.584h-1.494a2.4 2.4 0 0 1 0-4.8h1.493a2.4 2.4 0 0 1 0 4.8M136.955 212.916a6.304 6.304 0 0 1-6.296-6.297 1.8 1.8 0 0 1 3.6 0 2.7 2.7 0 0 0 4.262 2.196 1.797 1.797 0 0 1 2.51.418 1.797 1.797 0 0 1-.416 2.51 6.252 6.252 0 0 1-3.66 1.173" mask="url(#f)"/>
                <path fill="#893300" d="M156.44 180.986h-28.463l-2.92-6.196c-2.455 10.021-14.353 11.923-14.353 11.923v-27.13h28.709c6.915 0 16.022 10.602 17.028 21.403" mask="url(#f)"/>
                <path fill="#893300" d="M108.516 217.87h9.253v-38.358h-9.253z" mask="url(#f)"/>
                <path fill="#CC4B00" d="M147.596 164.022c-.505 0-1.009-.213-1.365-.625a24.877 24.877 0 0 0-18.874-8.666 1.8 1.8 0 1 1 0-3.6c8.306 0 16.18 3.615 21.604 9.916a1.801 1.801 0 0 1-1.365 2.975" mask="url(#f)"/>
                <path fill="#2F3F62" d="M110.849 270.755a8.4 8.4 0 0 1-8.4-8.4v-25.692a8.4 8.4 0 1 1 16.8 0v25.692a8.4 8.4 0 0 1-8.4 8.4" mask="url(#f)"/>
                <path fill="#2F3F62" d="M110.855 270.757a8.4 8.4 0 0 1-7.6-4.81 8.4 8.4 0 0 1 4.002-11.186l23.225-10.984a8.401 8.401 0 0 1 7.184 15.187l-23.225 10.985a8.375 8.375 0 0 1-3.586.808" mask="url(#f)"/>
                <path fill="#FF8851" d="M145.177 243.44a7.45 7.45 0 1 1-10.537 10.535 7.45 7.45 0 0 1 10.537-10.535" mask="url(#f)"/>
                <path fill="#FF8851" d="M144.736 258.304c-.214 0-.43-.031-.644-.101l-6.254-2.01a2.1 2.1 0 1 1 1.285-3.998l6.255 2.01a2.1 2.1 0 0 1-.642 4.099" mask="url(#f)"/>
                <path fill="#FF8851" d="M147.621 255.965a2.12 2.12 0 0 1-.48-.055l-4.41-1.035a2.1 2.1 0 0 1 .96-4.09l2.762.649.534-1.12a2.1 2.1 0 0 1 3.79 1.807l-1.26 2.647a2.1 2.1 0 0 1-1.896 1.197" mask="url(#f)"/>
                <path fill="#FF8851" d="M150.718 252.098c-.214 0-.43-.033-.643-.101l-6.255-2.011a2.1 2.1 0 0 1 1.287-3.999l4.472 1.438.528-1.16a2.1 2.1 0 1 1 3.823 1.736l-1.3 2.865a2.1 2.1 0 0 1-1.912 1.232" mask="url(#f)"/>
                <path fill="#FF8851" d="M147.67 246.32c-.17 0-.34-.021-.51-.063l-5.235-1.307a2.1 2.1 0 1 1 1.018-4.075l5.233 1.306a2.099 2.099 0 0 1-.507 4.138" mask="url(#f)"/>
                <path fill="#6BC72A" d="M130.707 232.806c-4.571 0-8.289-3.719-8.289-8.288v-3.077a1.2 1.2 0 0 1 2.4 0v3.077a5.895 5.895 0 0 0 5.889 5.888 5.895 5.895 0 0 0 5.888-5.888v-2.062a1.199 1.199 0 1 1 2.4 0v2.062c0 4.57-3.718 8.288-8.288 8.288" mask="url(#f)"/>
                <path fill="#0F0F30" d="M154.375 265.388H140.55a2.399 2.399 0 0 1-2.346-2.907l7.362-32.4a2.4 2.4 0 0 1 2.346-1.893h14.863l-8.4 37.2z" mask="url(#f)"/>
                <path fill="#474785" d="M145.35 265.388h39.49c1.13 0 2.106-.787 2.345-1.893l7.362-32.4a2.4 2.4 0 0 0-2.346-2.907h-39.49c-1.129 0-2.107.788-2.344 1.893l-7.363 32.4a2.4 2.4 0 0 0 2.346 2.907" mask="url(#f)"/>
                <path fill="#E6E6E6" d="M189.475 252.188h-42.103l-.47 2.181c-.106.491-.052 1.001.156 1.457l3.659 8.049-1.713 1.513h42.744c1.746 0 2.908-1.804 2.185-3.393l-4.458-9.807z" mask="url(#f)"/>
                <path fill="#DECCBF" d="M191.748 265.392h-42.744l1.716-1.512-.984-2.16h44.076l.12.276c.72 1.584-.444 3.396-2.184 3.396" mask="url(#f)"/>
                <path fill="#B9958E" d="M152.04 262.968a2.42 2.42 0 0 1-.888 1.873c-.42.348-.948.552-1.536.552H138.84a.9.9 0 1 1 0-1.8h9.468c.42-.012.996-.156 1.152-.29.276-.226.456-.562.456-.96 0-.166-.036-.322-.096-.48-.01-.027-1.978-4.328-2.764-6.046a2.292 2.292 0 0 1-.156-1.45l.472-2.174 4.38 9.623c.036.073.072.144.096.217.12.288.192.61.192.935" mask="url(#f)"/>
                <path fill="#6666B6" d="M190.551 235.493h-26.528a1.8 1.8 0 1 1 0-3.6h26.528a1.8 1.8 0 1 1 0 3.6" mask="url(#f)"/>
                <path fill="#FFF" d="M189.458 260.532h-34.929a1.8 1.8 0 1 1 0-3.6h34.929a1.8 1.8 0 1 1 0 3.6" mask="url(#f)"/>
                <path fill="#D74040" d="M33.24 287.555h54.644v-35.586c0-15.089-12.233-27.323-27.322-27.323-15.09 0-27.323 12.234-27.323 27.323v35.586z" mask="url(#f)"/>
                <path fill="#B13434" d="M52.612 238.267v14.484H33.244v-.78c0-10.596 6.036-19.776 14.844-24.312 1.262.895 4.846 3.809 4.524 10.608" mask="url(#f)"/>
                <path fill="#69413B" d="M62.616 235.019a5.953 5.953 0 0 0 5.952-5.954v-9.222H56.664v9.222a5.952 5.952 0 0 0 5.952 5.954" mask="url(#f)"/>
                <path fill="#9F655A" d="M64.06 232.012a3 3 0 0 1-3-3v-.458a3 3 0 1 1 6 0v.458a3 3 0 0 1-3 3" mask="url(#f)"/>
                <path fill="#69413B" d="M80.955 193.071a6 6 0 1 0 12 0 6 6 0 0 0-12 0" mask="url(#f)"/>
                <path fill="#2F353D" d="M69.526 191.092h20.2V171.67h-20.2z" mask="url(#f)"/>
                <path fill="#2F353D" d="M55.38 172.627c0 9.483 7.689 17.173 17.173 17.173 9.484 0 17.172-7.69 17.172-17.173 0-9.484-7.688-17.173-17.172-17.173-9.484 0-17.173 7.69-17.173 17.173" mask="url(#f)"/>
                <path fill="#0F1112" d="M55.38 172.627c0-8.171 5.71-14.994 13.355-16.732 8.476 7.05 13.726 18.6 9.096 33.45-1.019.189-4.205.455-5.278.455-9.484 0-17.173-7.69-17.173-17.173" mask="url(#f)"/>
                <path fill="#9F655A" d="M58.745 221.827h8.944c11.117 0 20.129-9.012 20.129-20.128v-26.945c0-11.115-9.012-20.127-20.13-20.127h-8.943c-11.117 0-20.127 9.012-20.127 20.127V201.7c0 11.116 9.01 20.128 20.127 20.128" mask="url(#f)"/>
                <path fill="#69413B" d="M38.622 174.76v26.94c0 11.112 9.012 20.124 20.124 20.124h8.94c.108 0 .216 0 .324-.012-10.956-.168-19.788-9.108-19.788-20.112v-26.94c0-11.016 8.832-19.956 19.788-20.124-.108-.012-.216-.012-.324-.012h-8.94c-11.112 0-20.124 9.012-20.124 20.136" mask="url(#f)"/>
                <path fill="#69413B" d="M31.08 193.071a6 6 0 1 0 12 0 6 6 0 0 0-12 0" mask="url(#f)"/>
                <path fill="#0F1112" d="M81.277 195.117a2.4 2.4 0 0 1-2.4-2.4v-1.492a2.4 2.4 0 0 1 4.8 0v1.492a2.4 2.4 0 0 1-2.4 2.4M57.277 195.117a2.4 2.4 0 0 1-2.4-2.4v-1.492a2.4 2.4 0 0 1 4.8 0v1.492a2.4 2.4 0 0 1-2.4 2.4M78.044 188.539a2.4 2.4 0 0 1-.869-4.638l5.868-2.277a2.4 2.4 0 0 1 1.735 4.475l-5.866 2.275a2.38 2.38 0 0 1-.868.165M60.604 187.4H54.31a2.4 2.4 0 0 1 0-4.8h6.294a2.4 2.4 0 0 1 0 4.8" mask="url(#f)"/>
                <path fill="#69413B" d="M70.902 199.917a2.4 2.4 0 0 1-2.4-2.4v-3.642a2.4 2.4 0 0 1 4.8 0v3.642a2.4 2.4 0 0 1-2.4 2.4" mask="url(#f)"/>
                <path fill="#0F1112" d="M37.08 177.786H76.18c10.66 0 19.304-8.644 19.304-19.306v-13.85H56.386c-10.662 0-19.306 8.642-19.306 19.305v13.85z" mask="url(#f)"/>
                <path fill="#0F1112" d="M37.085 163.936v13.848h13.632c-1.452-7.176-6.708-13.009-13.572-15.288-.048.467-.06.96-.06 1.44" mask="url(#f)"/>
                <path fill="#2F353D" d="M30.709 166.254c8.63 0 15.626 6.996 15.626 15.625v5.487H30.709v-21.112z" mask="url(#f)"/>
                <path fill="#515C67" d="M45.063 158.235a1.798 1.798 0 0 1-1.49-2.807c2.98-4.417 7.007-6.85 11.34-6.85a1.8 1.8 0 1 1 0 3.6c-3.099 0-6.067 1.87-8.356 5.264a1.797 1.797 0 0 1-1.494.793" mask="url(#f)"/>
                <path fill="#69413B" d="M64.806 211.636a3.49 3.49 0 1 0 6.979 0 3.49 3.49 0 0 0-6.979 0" mask="url(#f)"/>
                <path fill="#5CDCDA" d="M232.675 268.082a8.395 8.395 0 0 1-7.17-4.012l-13.653-22.275a8.4 8.4 0 0 1 2.773-11.551c3.955-2.428 9.127-1.184 11.551 2.77l13.653 22.277a8.4 8.4 0 0 1-2.772 11.551 8.354 8.354 0 0 1-4.382 1.24" mask="url(#f)"/>
                <path fill="#FF8C8A" d="M202.967 254.439a7.449 7.449 0 0 1 7.45 7.45 7.449 7.449 0 0 1-7.45 7.45 7.449 7.449 0 0 1-7.45-7.45 7.449 7.449 0 0 1 7.45-7.45" mask="url(#f)"/>
                <path fill="#5CDCDA" d="M232.667 268.08H212.76a8.4 8.4 0 0 1-8.4-8.4 8.4 8.4 0 0 1 8.4-8.4h19.908a8.4 8.4 0 1 1 0 16.8" mask="url(#f)"/>
                <path fill="#A8EDEB" d="M210.897 260.051c-.408 0-.822-.084-1.22-.262a3 3 0 0 1-1.519-3.96c.9-2.02 2.99-2.766 4.742-2.653h4.09a3 3 0 0 1 0 6h-3.974a3.012 3.012 0 0 1-2.12.875M222.953 240.405a3 3 0 0 1-2.549-1.413l-1.855-2.973a3.001 3.001 0 0 1 .958-4.134 3.002 3.002 0 0 1 4.132.957l1.857 2.975a3 3 0 0 1-2.543 4.588" mask="url(#f)"/>
                <path fill="#69413B" d="M63.767 254.439a7.449 7.449 0 0 1 7.45 7.45 7.449 7.449 0 0 1-7.45 7.45 7.449 7.449 0 0 1-7.45-7.45 7.449 7.449 0 0 1 7.45-7.45" mask="url(#f)"/>
                <path fill="#9F2424" d="M93.467 268.08H73.56a8.4 8.4 0 0 1-8.4-8.4 8.4 8.4 0 0 1 8.4-8.4h19.908a8.4 8.4 0 1 1 0 16.8" mask="url(#f)"/>
                <path fill="#D74040" d="M71.697 260.051c-.408 0-.823-.084-1.22-.262a3 3 0 0 1-1.519-3.96c.935-2.1 3.153-2.83 4.948-2.634a3 3 0 0 1-.08 5.972 3.015 3.015 0 0 1-2.13.884" mask="url(#f)"/>
                <path fill="#F76261" d="M41.765 268.08a8.4 8.4 0 0 1-8.37-7.823l-1.604-23.273a8.4 8.4 0 0 1 7.803-8.957c4.626-.337 8.638 3.175 8.957 7.804l1.603 23.274a8.4 8.4 0 0 1-8.389 8.976" mask="url(#f)"/>
                <path fill="#FF9A9A" d="M43.515 243.603a3 3 0 0 1-2.986-2.765l-.44-5.584a3.001 3.001 0 0 1 2.756-3.227c1.642-.117 3.096 1.104 3.225 2.756l.44 5.584a2.999 2.999 0 0 1-2.995 3.236" mask="url(#f)"/>
                <path fill="#F76261" d="M41.782 268.082a8.401 8.401 0 0 1-4.499-15.5l24.81-15.693a8.399 8.399 0 0 1 11.589 2.609 8.4 8.4 0 0 1-2.608 11.59l-24.81 15.692a8.365 8.365 0 0 1-4.482 1.302" mask="url(#f)"/>
                <path fill="#FF9A9A" d="M56.32 248.519c-.959 0-1.9-.459-2.48-1.31a2.998 2.998 0 0 1 .786-4.167l5.784-3.948a2.995 2.995 0 0 1 4.168.786 2.998 2.998 0 0 1-.786 4.167l-5.784 3.948a2.98 2.98 0 0 1-1.688.524" mask="url(#f)"/>
                <path fill="#4E6A9C" d="M113.895 245.912a3 3 0 0 1-3-3v-6.25a3 3 0 1 1 6 0v6.25a3 3 0 0 1-3 3" mask="url(#f)"/>
                <path fill="#69413B" d="M85.696 245.188h-2.624c.88.01 1.758.007 2.624 0" mask="url(#f)"/>
                <path fill="#69413B" d="M79.12 228.338l-4.624 2.777a2.095 2.095 0 0 0-1.018 1.69 7.428 7.428 0 0 0-3.04 5.994 7.45 7.45 0 0 0 7.45 7.45c.925 0 1.807-.178 2.626-.486.081.01.16.025.245.025h7.843a2.1 2.1 0 1 0 0-4.2h-3.809c.014-.035.026-.073.04-.109h5.15a2.1 2.1 0 1 0 0-4.2h-4.801c-.007-.037-.02-.072-.028-.11h3.29a2.1 2.1 0 0 0 0-4.2H82.52a7.429 7.429 0 0 0-1.452-.9l.215-.13a2.096 2.096 0 0 0 .719-2.881 2.099 2.099 0 0 0-2.88-.72" mask="url(#f)"/>
                <path fill="#9F655A" d="M84.833 241.48h5.15a2.1 2.1 0 1 0 0-4.2h-4.8c-.009-.038-.02-.074-.03-.111h3.291a2.1 2.1 0 1 0 0-4.2H82.52a7.393 7.393 0 0 0-1.452-.9l.214-.13a2.097 2.097 0 0 0 .72-2.882 2.1 2.1 0 0 0-2.88-.719l-4.626 2.777a2.098 2.098 0 0 0-1.017 1.69 7.53 7.53 0 0 0-1.803 1.892c-.626.944-1.02 7.221 13.122 6.88l.036-.098" mask="url(#f)"/>
                <path fill="#D28F85" d="M76.935 232.619a1.2 1.2 0 0 1-.635-2.219l3.082-1.918a1.201 1.201 0 0 1 1.268 2.038l-3.083 1.919c-.196.12-.416.18-.632.18" mask="url(#f)"/>
                <path fill="#2F3F62" d="M131.6 317.461h34.683v-39H131.6z" mask="url(#f)"/>
                <path fill="#009BCF" d="M159.404 278.461h101.367v-13.2H159.404z" mask="url(#f)"/>
                <path fill="#2F3F62" d="M124.722 278.461h34.682v-13.2h-34.682z" mask="url(#f)"/>
                <path fill="#009BCF" d="M154.283 317.461h94.2v-39h-94.2z" mask="url(#f)"/>
                <path fill="#2F3F62" d="M131.6 286.51h116.883v-8.049H131.6z" mask="url(#f)"/>
                <path fill="#00D2FF" d="M254.875 272.338h-16.593a3 3 0 1 1 0-6h16.593a3 3 0 1 1 0 6" mask="url(#f)"/>
                <path fill="#2F3F62" d="M8 317.461h34.683v-39H8z" mask="url(#f)"/>
                <path fill="#009BCF" d="M35.804 278.461h114.567v-13.2H35.804z" mask="url(#f)"/>
                <path fill="#2F3F62" d="M1.122 278.461h34.682v-13.2H1.122z" mask="url(#f)"/>
                <path fill="#009BCF" d="M42.683 317.461h103.8v-39h-103.8z" mask="url(#f)"/>
                <path fill="#2F3F62" d="M42.683 286.51h103.8v-8.049h-103.8z" mask="url(#f)"/>
                <path fill="#00D2FF" d="M144.475 272.338h-44.097a3 3 0 0 1 0-6h44.097a3 3 0 1 1 0 6M48.51 305.892a3 3 0 0 1-3-3v-6.3a3 3 0 1 1 6 0v6.3a3 3 0 0 1-3 3" mask="url(#f)"/>
                <path fill="#808068" d="M502.674 161.118a3.045 3.045 0 1 1-6.089 0 3.045 3.045 0 0 1 6.09 0" mask="url(#f)"/>
                <path fill="#391421" d="M497.633 238.025v.565c0 6.648-5.388 12.048-12.036 12.048l-83.868-.181c-6.648 0-12.036-5.388-12.036-12.036v-.564c0-4.08 2.028-7.68 5.124-9.852.816-.575.636-1.823-.324-2.123-5.268-1.67-9.012-6.757-8.58-12.673.48-6.504 6.18-11.4 12.708-11.4h1.308c1.14 0 1.62-1.404.756-2.123a11.791 11.791 0 0 1-4.236-9.061v-.972c0-6.54 5.304-11.844 11.844-11.844h1.176c1.14 0 1.62-1.392.756-2.123-2.424-2.1-3.96-5.185-3.96-8.64v-1.825c0-6.3 5.112-11.412 11.412-11.412h15.192c3.372 0 6.384 1.464 8.472 3.78a11.351 11.351 0 0 1 8.316-3.6h15.192c6.3 0 11.412 5.1 11.412 11.412v1.824c0 2.725-.96 5.232-2.556 7.188a2.124 2.124 0 0 0-.492 1.356c0 1.14.912 2.22 2.22 2.22 6.54 0 11.844 5.293 11.844 11.832v.973c0 2.879-1.032 5.507-2.736 7.548a2.13 2.13 0 0 0-.504 1.379c0 1.165.936 2.269 2.268 2.269 6.024 0 11.94 4.835 12.648 10.81.588 5.005-1.812 9.494-5.664 11.93-1.392.875-1.476 2.856-.192 3.887a11.976 11.976 0 0 1 4.536 9.408" mask="url(#f)"/>
                <path fill="#0F1112" d="M423.089 239.142h28.789v-36.92h-28.79z" mask="url(#f)"/>
                <path fill="#3F2146" d="M440.004 223.273c-12.959 2.137-22.842 13.393-22.842 26.957v35.586h54.645V250.23c0-15.089-12.233-27.322-27.323-27.322-1.525 0-3.022.125-4.48.365" mask="url(#f)"/>
                <path fill="#572D5F" d="M471.808 250.232v35.579H417.16v-14.183a13.24 13.24 0 0 0 5.616-5.053l13.644-22.271a13.085 13.085 0 0 0 1.584-9.985 13.105 13.105 0 0 0-5.94-8.171 1.514 1.514 0 0 0-.228-.133 27.122 27.122 0 0 1 8.172-2.735 26.2 26.2 0 0 1 4.476-.373c15.096 0 27.324 12.229 27.324 27.325" mask="url(#f)"/>
                <path fill="#C67336" d="M446.54 233.28a5.953 5.953 0 0 0 5.951-5.952v-9.224h-11.904v9.224a5.952 5.952 0 0 0 5.952 5.952" mask="url(#f)"/>
                <path fill="#FF8851" d="M464.877 191.334a6 6 0 1 0 12.001-.002 6 6 0 0 0-12 .002" mask="url(#f)"/>
                <path fill="#FFB899" d="M446.682 160.091c-13.364 0-24.196 10.833-24.196 24.196v12.475c0 13.362 10.832 24.196 24.196 24.196 13.363 0 24.195-10.834 24.195-24.196v-12.475c0-13.363-10.832-24.196-24.195-24.196" mask="url(#f)"/>
                <path fill="#FF8851" d="M449.68 220.771c-.984.132-1.98.192-3 .192-13.356 0-24.192-10.835-24.192-24.204v-12.467c0-13.369 10.836-24.204 24.192-24.204a22.3 22.3 0 0 1 3 .192c-11.94 1.475-21.192 11.664-21.192 24.012v12.467c0 12.348 9.252 22.537 21.192 24.012" mask="url(#f)"/>
                <path fill="#F39043" d="M447.983 230.273a3 3 0 0 1-3-3v-.456a3 3 0 1 1 6 0v.456a3 3 0 0 1-3 3" mask="url(#f)"/>
                <path fill="#C67336" d="M415.003 191.334a6 6 0 1 0 12 0 6 6 0 0 0-12 0" mask="url(#f)"/>
                <path fill="#AF4646" d="M436.032 203.328c0 5.892 4.776 10.656 10.656 10.656 5.88 0 10.644-4.764 10.644-10.656h-21.3z" mask="url(#f)"/>
                <path fill="#0F1112" d="M458.742 193.378a2.4 2.4 0 0 1-2.4-2.4v-1.492a2.4 2.4 0 0 1 4.8 0v1.492a2.4 2.4 0 0 1-2.4 2.4M434.742 193.378a2.4 2.4 0 0 1-2.4-2.4v-1.492a2.4 2.4 0 0 1 4.8 0v1.492a2.4 2.4 0 0 1-2.4 2.4M461.588 185.66h-6.293a2.4 2.4 0 0 1 0-4.8h6.293a2.4 2.4 0 0 1 0 4.8M438.068 185.66h-6.294a2.4 2.4 0 0 1 0-4.8h6.294a2.4 2.4 0 0 1 0 4.8" mask="url(#f)"/>
                <path fill="#C67336" d="M446.682 198.178a2.4 2.4 0 0 1-2.4-2.4v-3.642a2.4 2.4 0 0 1 4.8 0v3.642a2.4 2.4 0 0 1-2.4 2.4" mask="url(#f)"/>
                <path fill="#391421" d="M451.956 170.888h-19.994c-6.305 0-11.415-5.11-11.415-11.415v-1.82c0-6.305 5.11-11.414 11.415-11.414h19.994c6.304 0 11.415 5.11 11.415 11.414v1.82c0 6.305-5.111 11.415-11.415 11.415" mask="url(#f)"/>
                <path fill="#391421" d="M451.98 175.762h-19.994c-6.304 0-11.415-5.111-11.415-11.415v-1.821c0-6.304 5.111-11.415 11.415-11.415h19.994c6.304 0 11.415 5.111 11.415 11.415v1.821c0 6.304-5.111 11.415-11.415 11.415M415.854 202.557h-7.995c-6.303 0-11.414-5.11-11.414-11.415v-1.82c0-6.304 5.11-11.415 11.414-11.415h7.995c6.303 0 11.414 5.111 11.414 11.415v1.82c0 6.305-5.11 11.415-11.414 11.415" mask="url(#f)"/>
                <path fill="#391421" d="M425.992 180.99h-3.194c-6.305 0-11.415-5.111-11.415-11.416v-1.82c0-6.304 5.11-11.415 11.415-11.415h3.194c6.304 0 11.414 5.11 11.414 11.414v1.82c0 6.306-5.11 11.416-11.414 11.416M459.383 167.753v1.822c0 6.303 5.11 11.414 11.415 11.414h2.9c-.524-8.56-3.319-16.907-8.391-23.242a11.406 11.406 0 0 0-5.924 10.006" mask="url(#f)"/>
                <path fill="#74314A" d="M425.347 159.451a1.8 1.8 0 0 1-1.8-1.8c0-4.639 3.776-8.414 8.415-8.414h15.194a1.8 1.8 0 0 1 0 3.6h-15.194a4.82 4.82 0 0 0-4.815 4.814 1.8 1.8 0 0 1-1.8 1.8" mask="url(#f)"/>
                <path fill="#0BCDCA" d="M446.54 235.63c-4.572 0-8.29-3.717-8.29-8.287v-3.077a1.2 1.2 0 0 1 2.4 0v3.077a5.894 5.894 0 0 0 5.89 5.887 5.894 5.894 0 0 0 5.887-5.887v-2.061a1.199 1.199 0 1 1 2.4 0v2.061c0 4.57-3.717 8.287-8.288 8.287M426.287 262.11h35.81v-16.45h-35.81z" mask="url(#f)"/>
                <path fill="#179A97" d="M426.287 262.11h1.005l12-16.45h-13.005z" mask="url(#f)"/>
                <path fill="#E6E6E6" d="M437.558 205.393h18.248v-2.066h-18.248z" mask="url(#f)"/>
                <path fill="#74314A" d="M411.066 168.846a1.8 1.8 0 0 1-1.8-1.8v-1.822c0-4.64 3.775-8.414 8.414-8.414a1.8 1.8 0 1 1 0 3.6 4.82 4.82 0 0 0-4.814 4.814v1.822a1.8 1.8 0 0 1-1.8 1.8m-9.815 23.576a1.8 1.8 0 0 1-1.8-1.8v-.974c0-4.874 3.965-8.838 8.84-8.838a1.8 1.8 0 0 1 0 3.6c-2.89 0-5.24 2.35-5.24 5.238v.974a1.8 1.8 0 0 1-1.8 1.8m92.933 22.743a1.802 1.802 0 0 1-1.786-1.589c-.299-2.518-3.314-4.993-6.087-4.993a1.8 1.8 0 1 1 0-3.6c4.63 0 9.146 3.817 9.663 8.17a1.8 1.8 0 0 1-1.79 2.012m-103.477.196a1.801 1.801 0 0 1-1.798-1.932c.353-4.833 4.618-8.619 9.71-8.619h1.313a4.148 4.148 0 0 0 3.937-2.749 1.8 1.8 0 1 1 3.383 1.232c-1.133 3.109-4.005 5.117-7.32 5.117h-1.313c-3.216 0-5.904 2.32-6.12 5.282a1.8 1.8 0 0 1-1.792 1.669m11.024 32.1c-4.986 0-9.04-4.056-9.04-9.041v-.569a9.054 9.054 0 0 1 3.846-7.392 1.8 1.8 0 1 1 2.072 2.946 5.441 5.441 0 0 0-2.319 4.446v.569c0 3 2.441 5.44 5.441 5.44a1.8 1.8 0 0 1 0 3.6" mask="url(#f)"/>
                <path fill="#13314C" d="M478.128 265.45a8.399 8.399 0 0 1-5.641-14.626l19.043-17.246a8.4 8.4 0 0 1 11.866.59 8.398 8.398 0 0 1-.588 11.862l-19.044 17.246a8.367 8.367 0 0 1-5.636 2.174" mask="url(#f)"/>
                <path fill="#2F5A94" d="M478.125 265.45c-2.12 0-4.241-.797-5.876-2.396l-11.224-10.985a8.4 8.4 0 0 1 11.75-12.007L484 251.046a8.398 8.398 0 0 1 .128 11.88 8.375 8.375 0 0 1-6.003 2.524" mask="url(#f)"/>
                <path fill="#0F1112" d="M545.223 206.706c-5.445 0-9.858-4.413-9.858-9.858h9.858v9.858z" mask="url(#f)"/>
                <path fill="#221D1D" d="M544.913 179.177h13.068v-3.275h-13.068z" mask="url(#f)"/>
                <path fill="#0F1112" d="M547.03 182.773c0 16.092-13.047 29.138-29.14 29.138-16.091 0-29.138-13.046-29.138-29.138 0-16.092 13.047-29.138 29.139-29.138s29.138 13.046 29.138 29.138" mask="url(#f)"/>
                <path fill="#57DC1D" d="M546.152 286.885h-54.644V251.3c0-15.09 12.232-27.323 27.321-27.323 15.09 0 27.323 12.233 27.323 27.323v35.585z" mask="url(#f)"/>
                <path fill="green" d="M546.152 251.3c0-5.085-1.394-9.843-3.814-13.922-15.441 12.844-25.504 30.15-27.294 49.506h31.108V251.3z" mask="url(#f)"/>
                <path fill="#C67336" d="M516.775 231.95a5.952 5.952 0 0 1-5.952-5.954v-6.822h11.904v6.822a5.953 5.953 0 0 1-5.952 5.954M498.437 192.402a6 6 0 1 1-12 0 6 6 0 0 1 12 0" mask="url(#f)"/>
                <path fill="#F39043" d="M520.646 221.158h-8.943c-11.117 0-20.13-9.012-20.13-20.128v-19.745c0-11.115 9.013-20.127 20.13-20.127h8.943c11.117 0 20.128 9.012 20.128 20.127v19.745c0 11.116-9.011 20.128-20.128 20.128" mask="url(#f)"/>
                <path fill="#C67336" d="M540.77 181.29v19.74c0 11.113-9.012 20.125-20.124 20.125h-8.94c-.108 0-.216 0-.324-.012 10.956-.168 19.788-9.108 19.788-20.112v-19.74c0-11.016-8.832-19.956-19.788-20.124.108-.012.216-.012.324-.012h8.94c11.112 0 20.124 9.012 20.124 20.136" mask="url(#f)"/>
                <path fill="#C67336" d="M548.312 192.402a6 6 0 1 1-12 0 6 6 0 0 1 12 0" mask="url(#f)"/>
                <path fill="#0F1112" d="M498.69 195.024a2.4 2.4 0 0 1-2.4-2.4v-1.152a2.4 2.4 0 0 1 4.8 0v1.152a2.4 2.4 0 0 1-2.4 2.4" mask="url(#f)"/>
                <path fill="#C65F16" d="M520.566 204.398c0 5.892-4.776 10.656-10.656 10.656-5.88 0-10.644-4.764-10.644-10.656h21.3z" mask="url(#f)"/>
                <path fill="#0F1112" d="M501.56 186.73h-6.292a2.4 2.4 0 0 1 0-4.8h6.292a2.4 2.4 0 0 1 0 4.8M525.081 186.73h-6.294a2.4 2.4 0 0 1 0-4.8h6.294a2.4 2.4 0 0 1 0 4.8M521.49 195.024a2.4 2.4 0 0 1-2.4-2.4v-1.152a2.4 2.4 0 0 1 4.8 0v1.152a2.4 2.4 0 0 1-2.4 2.4" mask="url(#f)"/>
                <path fill="#C67336" d="M508.49 199.248a2.4 2.4 0 0 1-2.4-2.4v-3.642a2.4 2.4 0 0 1 4.8 0v3.642a2.4 2.4 0 0 1-2.4 2.4" mask="url(#f)"/>
                <path fill="#0F1112" d="M543.914 183.498H531.17v-3.468a4.128 4.128 0 0 0-4.128-4.128h-31.344a4.128 4.128 0 0 0-4.128 4.128v3.468h-1.572c0-13.731 11.132-24.864 24.864-24.864h4.188c13.731 0 24.864 11.133 24.864 24.864M541.97 191.216a7.718 7.718 0 0 1-7.718-7.718h7.718v7.718z" mask="url(#f)"/>
                <path fill="#BE9695" d="M539.226 172.865c-.635 0-1.25-.336-1.578-.931a22.781 22.781 0 0 0-7.44-8.027 1.8 1.8 0 0 1 1.975-3.012 26.407 26.407 0 0 1 8.617 9.301 1.799 1.799 0 0 1-1.574 2.669" mask="url(#f)"/>
                <path fill="#E6E6E6" d="M500.582 206.464h18.248v-2.067h-18.248z" mask="url(#f)"/>
                <path fill="#6C5653" d="M511.382 175.902h-10.8s-.002-22.268 24.648-21.333c3.629.86 7.531 2.998 9.505 4.414-23.353-4.093-23.353 16.92-23.353 16.92" mask="url(#f)"/>
                <path fill="#2F302F" d="M526.975 146.971h-18.78c-14.148 0-21.759 11.664-20.643 25.442v6.764h60.065v-11.564c0-11.4-9.242-20.642-20.642-20.642" mask="url(#f)"/>
                <path fill="#808068" d="M539.028 157.942a1.8 1.8 0 0 1-1.37-.631 14.069 14.069 0 0 0-6.264-4.228 1.8 1.8 0 0 1-1.14-2.275 1.803 1.803 0 0 1 2.274-1.141 17.68 17.68 0 0 1 7.869 5.306 1.8 1.8 0 0 1-1.37 2.97" mask="url(#f)"/>
                <path fill="#494B3B" d="M510.578 146.971h-2.383c-11.4 0-20.643 9.242-20.643 20.642v11.564h43.668v-11.564c0-11.4-9.242-20.642-20.642-20.642" mask="url(#f)"/>
                <path fill="#0F1112" d="M513.797 175.861h-9.706v-1.745a2.73 2.73 0 0 1 2.728-2.728h4.25a2.73 2.73 0 0 1 2.728 2.728v1.745z" mask="url(#f)"/>
                <path fill="#49C53E" d="M504.366 233.01h28.416v-10.57h-28.416z" mask="url(#f)"/>
                <path fill="#124B82" d="M509.002 286.885h-2.4v-48.28c0-.179.044-4.182 3.58-6.68v-9.484h2.4v10.818l-.587.35c-2.92 1.736-2.991 4.87-2.993 5.002v48.274z" mask="url(#f)"/>
                <path fill="#49C53E" d="M520.128 265.45a8.399 8.399 0 0 1-5.641-14.626l19.043-17.246a8.4 8.4 0 0 1 11.866.59 8.398 8.398 0 0 1-.588 11.862l-19.044 17.246a8.367 8.367 0 0 1-5.636 2.174" mask="url(#f)"/>
                <path fill="#49C53E" d="M520.12 265.452a8.372 8.372 0 0 1-3.586-.809l-23.225-10.984a8.4 8.4 0 1 1 7.183-15.188l23.225 10.985a8.4 8.4 0 0 1 4.002 11.185 8.402 8.402 0 0 1-7.6 4.811" mask="url(#f)"/>
                <path fill="#808068" d="M502.674 161.118a3.045 3.045 0 1 1-6.089 0 3.045 3.045 0 0 1 6.09 0" mask="url(#f)"/>
                <path fill="#0F0F30" d="M466.48 251.187h13.826a2.4 2.4 0 0 0 2.346-2.908l-8.562-39.6a2.399 2.399 0 0 0-2.346-1.892H456.88l9.6 44.4z" mask="url(#f)"/>
                <path fill="#474785" d="M475.506 251.187h-25.09a2.4 2.4 0 0 1-2.345-1.894l-8.562-39.6a2.4 2.4 0 0 1 2.346-2.906h25.09c1.128 0 2.106.787 2.344 1.892l8.563 39.6a2.401 2.401 0 0 1-2.346 2.908" mask="url(#f)"/>
                <path fill="#6666B6" d="M463.728 213.592h-20.529a1.8 1.8 0 1 1 0-3.6h20.529a1.8 1.8 0 1 1 0 3.6" mask="url(#f)"/>
                <path fill="#FF8851" d="M454.327 235.125a6.977 6.977 0 0 1-6.976 6.977 6.977 6.977 0 1 1 6.976-6.977M498.38 240.782a7.993 7.993 0 1 1-15.985-.138 7.993 7.993 0 0 1 15.985.138" mask="url(#f)"/>
                <path fill="#FF8851" d="M483.68 228.047l8.925 4.7a2.062 2.062 0 1 1-1.921 3.649l-8.926-4.7a2.062 2.062 0 0 1 1.921-3.65" mask="url(#f)"/>
                <path fill="#FFB899" d="M492.982 242.786a3 3 0 0 1-3-3v-.394a3 3 0 1 1 6 0v.394a3 3 0 0 1-3 3" mask="url(#f)"/>
                <path fill="#8CE879" d="M514.104 253.458a3 3 0 0 1-1.27-.283l-7.636-3.575a3.001 3.001 0 0 1 2.544-5.435l7.637 3.574a3.002 3.002 0 0 1-1.275 5.72" mask="url(#f)"/>
                <path fill="#13314C" d="M548.309 268.082a8.401 8.401 0 0 1-7.153-12.79l13.652-22.278a8.401 8.401 0 0 1 14.323 8.78L555.48 264.07a8.395 8.395 0 0 1-7.17 4.012" mask="url(#f)"/>
                <path fill="#876B6A" d="M612.038 178.766c0 16.093-13.045 29.139-29.138 29.139-16.092 0-29.137-13.046-29.137-29.139 0-16.092 13.045-29.137 29.137-29.137 16.093 0 29.138 13.045 29.138 29.137" mask="url(#f)"/>
                <path fill="#3591FF" d="M611.162 282.88h-54.645v-35.587c0-15.089 12.233-27.323 27.322-27.323 15.09 0 27.323 12.234 27.323 27.323v35.586z" mask="url(#f)"/>
            </g>
            <g transform="translate(637.6 404.832)">
                <mask id="h" fill="#fff">
                    <use xlink:href="#g"/>
                </mask>
                <path fill="#AF4646" d="M7.824 68.876h5.213V.371H7.824zM19.824 68.876h5.213V.371h-5.213zM33.024 68.876h5.213V.371h-5.213zM46.224 68.876h5.213V.371h-5.213z" mask="url(#h)"/>
                <path fill="#A83636" d="M-4.621 56.431h68.504v-5.214H-4.62zM-4.621 45.631h68.504v-5.214H-4.62zM-4.621 31.231h68.504v-5.214H-4.62zM-4.621 18.031h68.504v-5.214H-4.62z" mask="url(#h)"/>
            </g>
            <g transform="translate(82 185.232)">
                <path fill="#EC9184" d="M581.785 230.343a5.953 5.953 0 0 1-5.952-5.952v-9.223h11.904v9.223a5.952 5.952 0 0 1-5.952 5.952"/>
                <path fill="#FCBB95" d="M580.34 227.336a3 3 0 0 1-3-3v-.456a3 3 0 1 1 6 0v.456a3 3 0 0 1-3 3"/>
                <path fill="#EC9184" d="M563.447 188.396a6 6 0 1 1-12 0 6 6 0 0 1 12 0"/>
                <path fill="#FCBB95" d="M585.656 217.151h-8.945c-11.115 0-20.127-9.012-20.127-20.128V177.28c0-11.116 9.012-20.128 20.127-20.128h8.945c11.117 0 20.128 9.012 20.128 20.128v19.744c0 11.116-9.011 20.128-20.128 20.128"/>
                <path fill="#EC9184" d="M605.78 177.284v19.74c0 11.112-9.013 20.125-20.125 20.125h-8.94c-.108 0-.216 0-.324-.013 10.956-.168 19.788-9.108 19.788-20.112v-19.74c0-11.016-8.832-19.956-19.788-20.124.108-.01.216-.01.324-.01h8.94c11.112 0 20.124 9.01 20.124 20.134"/>
                <path fill="#EC9184" d="M613.321 188.396a6 6 0 1 1-12 0 6 6 0 0 1 12 0"/>
                <path fill="#0F1112" d="M566.676 189.842h-3.552a1.8 1.8 0 1 1 0-3.6h3.552a1.8 1.8 0 1 1 0 3.6"/>
                <path fill="#826664" d="M566.57 182.724h-6.293a2.4 2.4 0 0 1 0-4.8h6.293a2.4 2.4 0 0 1 0 4.8M590.09 182.724h-6.293a2.4 2.4 0 0 1 0-4.8h6.293a2.4 2.4 0 0 1 0 4.8"/>
                <path fill="#0F1112" d="M589.476 189.842h-3.552a1.8 1.8 0 1 1 0-3.6h3.552a1.8 1.8 0 1 1 0 3.6"/>
                <path fill="#EC9184" d="M573.5 195.242a2.4 2.4 0 0 1-2.4-2.4V189.2a2.4 2.4 0 0 1 4.8 0v3.642a2.4 2.4 0 0 1-2.4 2.4"/>
                <path fill="#876B6A" d="M608.923 179.492H596.18v-3.468a4.128 4.128 0 0 0-4.128-4.127h-31.344a4.128 4.128 0 0 0-4.128 4.127v3.468h-1.572c0-13.732 11.133-24.864 24.864-24.864h4.188c13.732 0 24.864 11.132 24.864 24.864"/>
                <path fill="#876B6A" d="M606.98 187.21a7.717 7.717 0 0 1-7.718-7.719h7.717v7.719z"/>
                <path fill="#BE9695" d="M604.235 168.86c-.635 0-1.25-.337-1.578-.932a22.75 22.75 0 0 0-7.439-8.027 1.8 1.8 0 0 1 1.974-3.012 26.386 26.386 0 0 1 8.617 9.302 1.798 1.798 0 0 1-1.574 2.668"/>
                <path fill="#6C5653" d="M576.392 171.897h-10.8s-.003-22.269 24.648-21.335c3.628.86 7.53 3 9.504 4.416-23.352-4.094-23.352 16.919-23.352 16.919"/>
                <path fill="#EC9184" d="M577.872 211.716a6.262 6.262 0 0 1-3.66-1.173 1.799 1.799 0 1 1 2.093-2.929c.46.328 1 .502 1.567.502a2.7 2.7 0 0 0 2.695-2.697 1.8 1.8 0 1 1 3.6 0 6.303 6.303 0 0 1-6.295 6.297"/>
                <path fill="#A83636" d="M570.087 260.051c-.795 0-1.564-.32-2.128-.884a3 3 0 0 1-.08-5.972c1.787-.198 4.01.533 4.947 2.633a3 3 0 0 1-2.739 4.223"/>
                <path fill="#572D5F" d="M411.509 268.082a8.401 8.401 0 0 1-7.153-12.79l13.652-22.278a8.401 8.401 0 0 1 14.323 8.78L418.68 264.07a8.395 8.395 0 0 1-7.17 4.012"/>
                <path fill="#572D5F" d="M411.508 268.082c-1.496 0-3.012-.4-4.381-1.24a8.4 8.4 0 0 1-2.772-11.55l13.652-22.278a8.396 8.396 0 0 1 11.552-2.77 8.4 8.4 0 0 1 2.773 11.55l-13.654 22.276a8.395 8.395 0 0 1-7.17 4.012"/>
                <path fill="#FF8851" d="M441.217 254.439a7.449 7.449 0 0 0-7.45 7.45 7.449 7.449 0 0 0 7.45 7.45 7.449 7.449 0 0 0 7.45-7.45 7.449 7.449 0 0 0-7.45-7.45"/>
                <path fill="#362D5C" d="M431.425 268.08h-19.908a8.4 8.4 0 1 1 0-16.8h19.908a8.4 8.4 0 1 1 0 16.8"/>
                <path fill="#524E9D" d="M433.287 260.051c-.795 0-1.564-.32-2.128-.884a3 3 0 0 1-.08-5.972c1.787-.198 4.01.533 4.947 2.633a3 3 0 0 1-2.739 4.223"/>
                <path fill="#754282" d="M418.482 244.813a3 3 0 0 1-2.543-4.588l4.605-7.383a3 3 0 1 1 5.09 3.176l-4.604 7.383a2.999 2.999 0 0 1-2.548 1.412"/>
                <path fill="#410C0C" d="M611.163 247.292v8.364l-27.324 2.4-27.324-2.4v-8.364c0-2.426.312-4.764.912-7.008h52.824c.6 2.244.912 4.582.912 7.008"/>
                <path fill="#872929" d="M578.007 250.192a8.4 8.4 0 0 1-1.062-16.732l27.397-3.526c4.6-.586 8.811 2.658 9.403 7.258a8.4 8.4 0 0 1-7.259 9.404l-27.397 3.525c-.364.047-.725.071-1.082.071"/>
                <path fill="#9C3232" d="M578.028 250.192c-.392 0-.786-.026-1.185-.083l-26.825-3.786a8.4 8.4 0 0 1-7.143-9.492c.648-4.593 4.902-7.795 9.49-7.143l26.825 3.784a8.4 8.4 0 0 1 7.144 9.494 8.4 8.4 0 0 1-8.306 7.226"/>
                <path fill="#872929" d="M565.825 268.08h-19.908a8.4 8.4 0 1 1 0-16.8h19.908a8.4 8.4 0 1 1 0 16.8"/>
                <path fill="#EC9184" d="M578.017 254.439a7.449 7.449 0 0 0-7.45 7.45 7.449 7.449 0 0 0 7.45 7.45 7.449 7.449 0 0 0 7.45-7.45 7.449 7.449 0 0 0-7.45-7.45"/>
                <path fill="#FCBB95" d="M547.273 231.603a7.522 7.522 0 0 0-1.996-2.225 2.096 2.096 0 0 0-1.017-1.689l-4.625-2.775a2.1 2.1 0 1 0-2.162 3.6l.216.13a7.429 7.429 0 0 0-1.452.9h-7.927a2.1 2.1 0 1 0 0 4.2h5.292l-.029.11h-.8a2.1 2.1 0 1 0 0 4.2h1.15c.052.138.108.273.17.408a2.097 2.097 0 0 0-.926 1.158c6.551.375 14.398-.898 14.106-8.017"/>
                <path fill="#EC9184" d="M547.273 231.603c.292 7.12-7.555 8.392-14.106 8.017a2.042 2.042 0 0 0-.114.644c0 1.16.941 2.1 2.1 2.1h2.844c.084 0 .165-.015.246-.025a7.41 7.41 0 0 0 2.624.485 7.45 7.45 0 0 0 7.45-7.45 7.362 7.362 0 0 0-1.044-3.771"/>
                <path fill="#FFB899" d="M532.774 232.066h-4.298a1.2 1.2 0 1 1 0-2.4h4.298a1.2 1.2 0 1 1 0 2.4"/>
                <path fill="#FFE2CC" d="M541.74 228.925c-.21 0-.422-.055-.615-.17l-2.6-1.554a1.2 1.2 0 1 1 1.23-2.06l2.601 1.554a1.199 1.199 0 0 1-.617 2.23"/>
                <mask id="j" fill="#fff">
                    <use xlink:href="#i"/>
                </mask>
                <path fill="#2F3F62" d="M476.01 317.461h34.682v-39H476.01z" mask="url(#j)"/>
                <path fill="#009BCF" d="M381.52 278.461h101.367v-13.2H381.521z" mask="url(#j)"/>
                <path fill="#2F3F62" d="M482.887 278.461h34.683v-13.2h-34.683z" mask="url(#j)"/>
                <path fill="#009BCF" d="M393.81 317.461h94.2v-39h-94.2z" mask="url(#j)"/>
                <path fill="#2F3F62" d="M393.81 286.51h116.882v-8.049H393.81z" mask="url(#j)"/>
                <path fill="#00D2FF" d="M476.01 272.338h-16.592a3 3 0 1 1 0-6h16.592a3 3 0 1 1 0 6" mask="url(#j)"/>
                <path fill="#2F3F62" d="M599.61 317.461h34.682v-39H599.61z" mask="url(#j)"/>
                <path fill="#009BCF" d="M491.92 278.461h114.567v-13.2H491.921z" mask="url(#j)"/>
                <path fill="#2F3F62" d="M606.487 278.461h34.683v-13.2h-34.683z" mask="url(#j)"/>
                <path fill="#009BCF" d="M495.81 317.461h103.8v-39h-103.8z" mask="url(#j)"/>
                <path fill="#2F3F62" d="M495.81 286.51h103.8v-8.049h-103.8z" mask="url(#j)"/>
                <path fill="#00D2FF" d="M599.514 272.338h-44.097a3 3 0 0 1 0-6h44.097a3 3 0 1 1 0 6M593.782 305.892a3 3 0 0 1-3-3v-6.3a3 3 0 1 1 6 0v6.3a3 3 0 0 1-3 3" mask="url(#j)"/>
                <path fill="#CD4545" d="M558.633 238.954c-.142 0-.286-.01-.43-.03l-4.09-.588a3 3 0 1 1 .852-5.939l4.09.587a3 3 0 0 1-.422 5.97" mask="url(#j)"/>
                <path fill="#0F1112" d="M340.938 119.315h-44.375a7.205 7.205 0 0 1-7.205-7.205V94.862a7.206 7.206 0 0 1 7.205-7.206h44.375a7.207 7.207 0 0 1 7.206 7.206v17.248a7.206 7.206 0 0 1-7.206 7.205" mask="url(#j)"/>
                <path fill="#0F1112" d="M341.33 102.515h-35.543a6.813 6.813 0 0 1-6.814-6.814v-20.22a6.814 6.814 0 0 1 6.814-6.815h19.184c12.798 0 23.173 10.374 23.173 23.174V95.7a6.814 6.814 0 0 1-6.815 6.814" mask="url(#j)"/>
                <path fill="#FFB899" d="M361.684 240.62a8.403 8.403 0 0 1-7.91-5.577l-12-33.6a8.4 8.4 0 0 1 5.085-10.737c4.368-1.562 9.176.717 10.736 5.086l12 33.6a8.399 8.399 0 0 1-5.086 10.735 8.378 8.378 0 0 1-2.825.492" mask="url(#j)"/>
                <path fill="#FFD0C1" d="M359.593 226.094a4.801 4.801 0 0 1-4.52-3.188l-2.606-7.297a4.8 4.8 0 0 1 2.906-6.134 4.796 4.796 0 0 1 6.135 2.906l2.605 7.297a4.8 4.8 0 0 1-4.52 6.416" mask="url(#j)"/>
                <path fill="#FFB899" d="M354.301 244.064a8.936 8.936 0 0 0 12.041 3.84c4.385-2.265 6.105-7.656 3.839-12.04a8.937 8.937 0 0 0-15.88 8.2" mask="url(#j)"/>
                <path fill="#FFB899" d="M369.051 250.612a2.4 2.4 0 0 1-2.4-2.394l-.018-7.88a2.4 2.4 0 0 1 2.394-2.406h.006a2.4 2.4 0 0 1 2.4 2.394l.018 7.88a2.401 2.401 0 0 1-2.395 2.406h-.005z" mask="url(#j)"/>
                <path fill="#FFB899" d="M361.837 253.534a2.4 2.4 0 0 1-.323-4.777l1.57-.215.272-3.488a2.405 2.405 0 0 1 2.58-2.207 2.4 2.4 0 0 1 2.206 2.579l-.423 5.418a2.401 2.401 0 0 1-2.067 2.191l-3.487.477c-.11.015-.22.022-.328.022" mask="url(#j)"/>
                <path fill="#FFB899" d="M356.026 255.63a2.401 2.401 0 0 1-.278-4.782l1.624-.192-.014-5.744a2.401 2.401 0 0 1 2.396-2.406h.004a2.4 2.4 0 0 1 2.4 2.396l.018 7.88a2.4 2.4 0 0 1-2.118 2.39l-3.747.442c-.095.01-.191.017-.285.017" mask="url(#j)"/>
                <path fill="#FFB899" d="M354.286 249.596a2.4 2.4 0 0 1-2.398-2.554l.415-6.457a2.399 2.399 0 1 1 4.79.307l-.414 6.457a2.4 2.4 0 0 1-2.393 2.247" mask="url(#j)"/>
                <path fill="#FF8851" d="M349.674 207.018c-4.24 0-7.883-3.2-8.343-7.512l-3.6-33.8a8.401 8.401 0 0 1 7.464-9.243c4.597-.482 8.75 2.849 9.241 7.464l3.6 33.8a8.4 8.4 0 0 1-8.362 9.29" mask="url(#j)"/>
                <path fill="#4242B6" d="M348.261 196.182c-5.452 0-10.135-4.115-10.726-9.658l-2.19-20.564c-.632-5.93 3.664-11.252 9.596-11.883 5.934-.629 11.25 3.665 11.882 9.595l2.19 20.565c.632 5.93-3.664 11.25-9.595 11.882-.388.04-.775.063-1.157.063" mask="url(#j)"/>
                <path fill="#4242B6" d="M338.68 197.263l-3.253-30.525 21.479-2.289 3.252 30.527z" mask="url(#j)"/>
                <path fill="#FF8851" d="M267.696 207.018a8.401 8.401 0 0 1-6.842-13.265l24-33.8a8.401 8.401 0 0 1 13.698 9.727l-24 33.8a8.39 8.39 0 0 1-6.856 3.538" mask="url(#j)"/>
                <path fill="#4242B6" d="M282.385 188.728a10.76 10.76 0 0 1-6.243-1.994c-4.863-3.454-6.006-10.195-2.554-15.059l9.31-13.111c3.452-4.862 10.194-6.007 15.058-2.555 4.863 3.454 6.006 10.195 2.554 15.059l-9.31 13.111a10.786 10.786 0 0 1-8.815 4.55" mask="url(#j)"/>
                <path fill="#4242B6" d="M282.385 188.728a10.75 10.75 0 0 1-6.243-1.995c-4.864-3.454-6.006-10.195-2.553-15.059l2.529-3.562c3.453-4.862 10.194-6.006 15.058-2.552 4.864 3.454 6.006 10.195 2.553 15.059l-2.529 3.561a10.785 10.785 0 0 1-8.815 4.548" mask="url(#j)"/>
                <path fill="#6464FF" d="M279.7 180.483a4.8 4.8 0 0 1-3.91-7.578l4.654-6.555a4.8 4.8 0 1 1 7.828 5.557l-4.655 6.554a4.793 4.793 0 0 1-3.918 2.022" mask="url(#j)"/>
                <path fill="#FFB899" d="M267.662 207.018a8.396 8.396 0 0 1-7.213-4.083l-17.953-29.953a8.4 8.4 0 0 1 2.886-11.523 8.398 8.398 0 0 1 11.524 2.886l17.953 29.953a8.4 8.4 0 0 1-2.886 11.523 8.354 8.354 0 0 1-4.31 1.197" mask="url(#j)"/>
                <path fill="#361708" d="M296.773 347.461h43.96V230.13h-43.96z" mask="url(#j)"/>
                <path fill="#50270A" d="M310.832 347.461h29.9V252.93h-29.9z" mask="url(#j)"/>
                <path fill="#3591FF" d="M335.303 149.162h-33.1a9.6 9.6 0 0 0-9.6 9.6v83.367h52.3v-83.367a9.6 9.6 0 0 0-9.6-9.6" mask="url(#j)"/>
                <path fill="#5F5FFF" d="M318.987 149.164v92.964h-26.388v-83.364c0-5.304 4.308-9.6 9.6-9.6h16.788z" mask="url(#j)"/>
                <path fill="#FF8851" d="M318.753 159.747a9.675 9.675 0 0 1-9.675-9.676V139h19.35v11.072c0 5.345-4.331 9.676-9.675 9.676" mask="url(#j)"/>
                <path fill="#FFD0C1" d="M258.942 191.467a4.789 4.789 0 0 1-3.394-1.406l-5.351-5.351a4.8 4.8 0 1 1 6.79-6.787l5.35 5.35a4.799 4.799 0 0 1-3.395 8.194" mask="url(#j)"/>
                <path fill="#FF8851" d="M318.753 159.747a9.675 9.675 0 0 1-9.675-9.676V139h19.35v11.072c0 5.345-4.331 9.676-9.675 9.676M297.417 109.486a6 6 0 1 1-12 0 6 6 0 0 1 12 0M352.092 109.486a6 6 0 1 1-12 0 6 6 0 0 1 12 0" mask="url(#j)"/>
                <path fill="#FFB899" d="M342.325 121.513c0 13.02-10.56 23.568-23.568 23.568-13.02 0-23.568-10.548-23.568-23.568l.012-25.704c.12-12.912 10.62-23.328 23.556-23.328 12.924 0 23.436 10.416 23.556 23.328l.012 25.704" mask="url(#j)"/>
                <path fill="#FCBB95" d="M342.325 121.513c0 13.02-10.56 23.568-23.568 23.568-13.02 0-23.568-10.548-23.568-23.568l.012-25.704c.12-12.912 10.62-23.328 23.556-23.328 12.924 0 23.436 10.416 23.556 23.328l.012 25.704" mask="url(#j)"/>
                <path fill="#353F42" d="M342.272 119.486a2.4 2.4 0 0 1 2.4 2.4v8.097c0 14.637-12.138 26.433-26.881 25.895-14.033-.511-24.945-12.475-24.945-26.517v-7.475a2.4 2.4 0 0 1 2.4-2.4h47.026z" mask="url(#j)"/>
                <path fill="#FFB899" d="M295.2 95.81v.647c-.011-.132-.011-.276-.011-.408 0-.084 0-.156.012-.24M342.325 96.05c0 .13 0 .274-.012.408v-.648c.012.084.012.156.012.24" mask="url(#j)"/>
                <path fill="#0F0F30" d="M307.741 97.814h-6.294a2.4 2.4 0 0 1 0-4.8h6.294a2.4 2.4 0 0 1 0 4.8M336.061 97.814h-6.293a2.4 2.4 0 0 1 0-4.8h6.293a2.4 2.4 0 0 1 0 4.8" mask="url(#j)"/>
                <path fill="#FF8851" d="M331.072 123.829c0 6.805-5.522 12.31-12.326 12.31a12.3 12.3 0 0 1-12.31-12.31h24.636z" mask="url(#j)"/>
                <path fill="#FFF" d="M331.069 123.829a12.4 12.4 0 0 1-.672 4.032h-23.292a12.4 12.4 0 0 1-.672-4.032h24.636z" mask="url(#j)"/>
                <path fill="#FFDACD" d="M334.863 87.309a1.795 1.795 0 0 1-1.536-.86 13.658 13.658 0 0 0-4.062-4.207 1.8 1.8 0 1 1 1.99-3 17.239 17.239 0 0 1 5.14 5.326 1.8 1.8 0 0 1-1.532 2.74" mask="url(#j)"/>
                <path fill="#FF8851" d="M318.754 114.832a3.6 3.6 0 0 1-3.6-3.6v-2.692a3.6 3.6 0 1 1 7.2 0v2.692a3.6 3.6 0 0 1-3.6 3.6" mask="url(#j)"/>
                <path fill="#0F0F30" d="M306.838 104.017h-2.48a2.4 2.4 0 0 1 0-4.8h2.48a2.4 2.4 0 0 1 0 4.8M332.915 104.017h-2.48a2.4 2.4 0 0 1 0-4.8h2.48a2.4 2.4 0 0 1 0 4.8" mask="url(#j)"/>
                <path fill="#353F42" d="M295.19 111.921v7.565h7.564a7.564 7.564 0 0 0-7.564-7.565M342.416 111.921v7.565h-7.565a7.564 7.564 0 0 1 7.565-7.565M324.32 71.637c0 10.373-8.399 18.785-18.77 18.785-10.373 0-18.785-8.412-18.785-18.785h37.555zM298.283 71.637c0-7.19 5.823-13.024 13.014-13.024 7.19 0 13.023 5.834 13.023 13.024h-26.037z" mask="url(#j)"/>
                <path fill="#6A7C80" d="M317.972 68.638c-.56 0-1.11-.259-1.462-.746a6.45 6.45 0 0 0-5.212-2.677 1.8 1.8 0 1 1 0-3.6c3.208 0 6.248 1.558 8.132 4.17a1.801 1.801 0 0 1-1.458 2.853" mask="url(#j)"/>
                <path fill="#5F5FFF" d="M351.187 178.092a4.801 4.801 0 0 1-4.766-4.278l-.797-7.297a4.802 4.802 0 0 1 4.251-5.294 4.802 4.802 0 0 1 5.292 4.25l.797 7.297a4.802 4.802 0 0 1-4.777 5.322" mask="url(#j)"/>
                <path fill="#FFD0C1" d="M354.18 245.807c-.023 0-.044 0-.066-.002a1.2 1.2 0 0 1-1.134-1.264l.211-3.868c.036-.662.604-1.195 1.264-1.132a1.2 1.2 0 0 1 1.133 1.263l-.21 3.869a1.2 1.2 0 0 1-1.198 1.134" mask="url(#j)"/>
                <path fill="#0F0F30" d="M245.571 139.09h37.481a2.4 2.4 0 0 1 2.4 2.4v51.571a2.4 2.4 0 0 1-2.4 2.4h-37.48a2.4 2.4 0 0 1-2.4-2.4v-51.57a2.4 2.4 0 0 1 2.4-2.4" mask="url(#j)"/>
                <path fill="#474785" d="M249.171 139.09h37.481a2.4 2.4 0 0 1 2.4 2.4v51.571a2.4 2.4 0 0 1-2.4 2.4h-37.48a2.4 2.4 0 0 1-2.4-2.4v-51.57a2.4 2.4 0 0 1 2.4-2.4" mask="url(#j)"/>
                <path fill="#FFF" d="M251.02 187.558h33.783v-42.803H251.02z" mask="url(#j)"/>
                <path fill="#B9DEDE" d="M251.02 152.07h33.783v-7.315H251.02zM254.06 165.27h27.704v-7.315H254.06zM270.104 182.086h11.66v-13.331h-11.66z" mask="url(#j)"/>
                <path fill="#FFF" d="M265.72 191.544a2.192 2.192 0 1 0 4.384 0 2.192 2.192 0 0 0-4.385 0" mask="url(#j)"/>
                <path fill="#B9DEDE" d="M254.06 182.086h11.66v-13.331h-11.66z" mask="url(#j)"/>
                <path fill="#FF8851" d="M249.86 160.988a8.936 8.936 0 0 0-12.594 1.056 8.937 8.937 0 1 0 12.594-1.056" mask="url(#j)"/>
                <path fill="#FF8851" d="M243.195 153.573v11.172a5.596 5.596 0 0 1-3.612-1.32c-2.352-1.992-2.652-5.52-.66-7.872a5.58 5.58 0 0 1 4.272-1.98" mask="url(#j)"/>
                <path fill="#E0D5CB" d="M608.692 123.115h-42.49c-7.844 0-14.202-6.359-14.202-14.2V96.168c0-7.842 6.358-14.2 14.201-14.2h42.491c7.843 0 14.2 6.358 14.2 14.2v12.745c0 7.842-6.357 14.201-14.2 14.201" mask="url(#j)"/>
                <path fill="#D7C6BB" d="M620.943 116.084a14.157 14.157 0 0 1-12.252 7.03H566.2c-5.22 0-9.792-2.818-12.24-7.03h66.984z" mask="url(#j)"/>
                <path fill="#D7C6BB" d="M604.037 123.115c0 5.86-4.741 10.6-10.6 10.6v-10.6h10.6z" mask="url(#j)"/>
                <path fill="#B9958E" d="M607.163 112.125h-6.423a2.4 2.4 0 0 1 0-4.8h6.423a2.4 2.4 0 0 1 0 4.8M593.54 112.125h-26.28a2.4 2.4 0 0 1 0-4.8h26.28a2.4 2.4 0 0 1 0 4.8" mask="url(#j)"/>
                <path fill="#F4F4F3" d="M569.98 93.26a6.834 6.834 0 1 1-13.667.001 6.834 6.834 0 0 1 13.667 0" mask="url(#j)"/>
                <path fill="#B9958E" d="M607.163 101.325h-24.02a2.4 2.4 0 0 1 0-4.8h24.02a2.4 2.4 0 0 1 0 4.8M575.941 101.325h-8.68a2.4 2.4 0 0 1 0-4.8h8.68a2.4 2.4 0 0 1 0 4.8" mask="url(#j)"/>
                <path fill="#E0D5CB" d="M224.692 123.115h-42.49c-7.844 0-14.202-6.359-14.202-14.2V96.168c0-7.842 6.358-14.2 14.201-14.2h42.491c7.843 0 14.2 6.358 14.2 14.2v12.745c0 7.842-6.357 14.201-14.2 14.201" mask="url(#j)"/>
                <path fill="#D7C6BB" d="M236.943 116.084a14.157 14.157 0 0 1-12.252 7.03H182.2c-5.22 0-9.792-2.818-12.24-7.03h66.984z" mask="url(#j)"/>
                <path fill="#D7C6BB" d="M220.037 123.115c0 5.86-4.741 10.6-10.6 10.6v-10.6h10.6z" mask="url(#j)"/>
                <path fill="#B9958E" d="M223.163 112.125h-6.423a2.4 2.4 0 0 1 0-4.8h6.423a2.4 2.4 0 0 1 0 4.8M209.54 112.125H197.6a2.4 2.4 0 0 1 0-4.8h11.94a2.4 2.4 0 0 1 0 4.8M189.83 112.125h-6.57a2.4 2.4 0 0 1 0-4.8h6.57a2.4 2.4 0 0 1 0 4.8" mask="url(#j)"/>
                <path fill="#F4F4F3" d="M185.98 93.26a6.834 6.834 0 1 1-13.667.001 6.834 6.834 0 0 1 13.667 0" mask="url(#j)"/>
                <path fill="#B9958E" d="M223.163 101.325h-3.62a2.4 2.4 0 0 1 0-4.8h3.62a2.4 2.4 0 0 1 0 4.8M212.341 101.325h-29.08a2.4 2.4 0 0 1 0-4.8h29.08a2.4 2.4 0 0 1 0 4.8" mask="url(#j)"/>
                <path fill="#E0D5CB" d="M14.201 123.115h42.49c7.844 0 14.202-6.359 14.202-14.2V96.168c0-7.842-6.358-14.2-14.201-14.2H14.2c-7.843 0-14.2 6.358-14.2 14.2v12.745c0 7.842 6.357 14.201 14.2 14.201" mask="url(#j)"/>
                <path fill="#D7C6BB" d="M1.95 116.084a14.157 14.157 0 0 0 12.252 7.03h42.492c5.22 0 9.792-2.818 12.24-7.03H1.95z" mask="url(#j)"/>
                <path fill="#D7C6BB" d="M18.856 123.115c0 5.86 4.742 10.6 10.6 10.6v-10.6h-10.6z" mask="url(#j)"/>
                <path fill="#B9958E" d="M31.753 112.125H15.73a2.4 2.4 0 0 1 0-4.8h16.023a2.4 2.4 0 0 1 0 4.8M43.633 112.125h-4.681a2.4 2.4 0 0 1 0-4.8h4.681a2.4 2.4 0 0 1 0 4.8" mask="url(#j)"/>
                <path fill="#F4F4F3" d="M52.912 93.26a6.834 6.834 0 1 0 13.667.001 6.834 6.834 0 0 0-13.667 0" mask="url(#j)"/>
                <path fill="#B9958E" d="M26.55 101.325H15.73a2.4 2.4 0 0 1 0-4.8h10.82a2.4 2.4 0 0 1 0 4.8M55.633 101.325h-21.88a2.4 2.4 0 0 1 0-4.8h21.88a2.4 2.4 0 0 1 0 4.8" mask="url(#j)"/>
                <path fill="#E0D5CB" d="M509.092 123.115h-64.09c-7.844 0-14.202-6.359-14.202-14.2V87.768c0-7.842 6.358-14.2 14.201-14.2h64.091c7.843 0 14.2 6.358 14.2 14.2v21.145c0 7.842-6.357 14.201-14.2 14.201" mask="url(#j)"/>
                <path fill="#D7C6BB" d="M521.343 116.084a14.157 14.157 0 0 1-12.252 7.03H445c-5.22 0-9.792-2.818-12.24-7.03h88.584z" mask="url(#j)"/>
                <path fill="#D7C6BB" d="M486.637 123.115c0 5.86 4.74 10.6 10.6 10.6v-10.6h-10.6zM468.437 123.115c0 5.86-4.741 10.6-10.6 10.6v-10.6h10.6z" mask="url(#j)"/>
                <path fill="#B9958E" d="M492.74 110.925h-28.957a2.4 2.4 0 0 1 0-4.8h28.957a2.4 2.4 0 0 1 0 4.8M454.786 110.925h-9.926a2.4 2.4 0 0 1 0-4.8h9.926a2.4 2.4 0 0 1 0 4.8" mask="url(#j)"/>
                <path fill="#F4F4F3" d="M449.006 85.227a6.833 6.833 0 0 1-6.834 6.833 6.833 6.833 0 1 1 0-13.667 6.834 6.834 0 0 1 6.834 6.834" mask="url(#j)"/>
                <path fill="#B9958E" d="M507.563 100.125h-22.82a2.4 2.4 0 0 1 0-4.8h22.82a2.4 2.4 0 0 1 0 4.8M507.563 89.325h-40.794a2.4 2.4 0 0 1 0-4.8h40.794a2.4 2.4 0 0 1 0 4.8M457.806 89.325h-12.663a2.4 2.4 0 0 1 0-4.8h12.663a2.4 2.4 0 0 1 0 4.8M476.341 100.125h-31.48a2.4 2.4 0 0 1 0-4.8h31.48a2.4 2.4 0 0 1 0 4.8" mask="url(#j)"/>
                <path fill="#395785" d="M318.753 364.8h-33.347v-5.6c0-6.482 5.256-11.738 11.74-11.738h21.607V364.8z" mask="url(#j)"/>
                <path fill="#5A6D94" d="M318.753 364.8H352.1v-5.6c0-6.482-5.256-11.738-11.74-11.738h-21.607V364.8z" mask="url(#j)"/>
            </g>
        </g>
    </g>
</svg>
