<?xml version="1.0" encoding="UTF-8"?>
<svg width="435px" height="405px" viewBox="0 0 435 405" version="1.1" xmlns="http://www.w3.org/2000/svg" xmlns:xlink="http://www.w3.org/1999/xlink">
    <!-- Generator: Sketch 53.2 (72643) - https://sketchapp.com -->
    <title>img-crear-y-hacer-clases</title>
    <desc>Created with Sketch.</desc>
    <defs>
        <polygon id="path-1" points="0.000239726027 0.206388053 174.793836 0.206388053 174.793836 175.393565 0.000239726027 175.393565"></polygon>
        <polygon id="path-3" points="0.705593607 0.764044248 92.7971461 0.764044248 92.7971461 118.09361 0.705593607 118.09361"></polygon>
        <polygon id="path-5" points="0.340091324 0.764044248 24.8720548 0.764044248 24.8720548 118.09361 0.340091324 118.09361"></polygon>
        <polygon id="path-7" points="0.000239726027 0.206388053 174.793836 0.206388053 174.793836 175.393565 0.000239726027 175.393565"></polygon>
        <polygon id="path-9" points="0.705593607 0.764044248 92.7971461 0.764044248 92.7971461 118.09361 0.705593607 118.09361"></polygon>
        <polygon id="path-11" points="0.340091324 0.764044248 24.8720548 0.764044248 24.8720548 118.09361 0.340091324 118.09361"></polygon>
    </defs>
    <g id="Page-1" stroke="none" stroke-width="1" fill="none" fill-rule="evenodd">
        <g id="Desktop-HD-15-NOV-Copy-2" transform="translate(-185.000000, -4815.000000)">
            <g id="Crear-y-hacer-clases" transform="translate(121.000000, 4283.000000)">
                <g id="img-crear-y-hacer-clases" transform="translate(54.000000, 516.000000)">
                    <g>
                        <g id="Group-18" fill="#F1F7FD">
                            <path d="M174.481459,-12.2021381 L174.481459,-12.2021381 C196.087909,-12.2113356 213.610854,5.29669711 213.620052,26.9031474 C213.620054,26.9076345 213.620055,26.9121217 213.620055,26.9166089 L213.635903,221.150808 C213.637666,242.766874 196.119757,260.293672 174.503693,260.302873 L174.503693,260.302873 C152.897243,260.312071 135.374298,242.804038 135.3651,221.197588 C135.365099,221.1931 135.365097,221.188613 135.365097,221.184126 L135.34925,26.9499272 C135.347486,5.33386124 152.865395,-12.1929366 174.481459,-12.2021381 Z" id="Rectangle-Copy-5" transform="translate(174.492576, 124.050367) scale(-1, 1) rotate(-45.000000) translate(-174.492576, -124.050367) "></path>
                            <path d="M59.6538843,69.6218372 L59.6538843,69.6218372 C73.3250834,69.6189079 84.4101546,80.6992299 84.4130838,94.370429 C84.4130842,94.3721748 84.4130844,94.3739206 84.4130844,94.3756665 L84.4132708,163.9285 C84.4133074,177.60344 73.3291427,188.690009 59.6542034,188.692939 L59.6542034,188.692939 C45.9830043,188.695869 34.8979331,177.615547 34.8950039,163.944348 C34.8950035,163.942602 34.8950033,163.940856 34.8950033,163.93911 L34.8948169,94.3862764 C34.8947803,80.7113368 45.978945,69.6247672 59.6538843,69.6218372 Z" id="Rectangle-Copy-12" transform="translate(59.654044, 129.157388) scale(-1, 1) rotate(-45.000000) translate(-59.654044, -129.157388) "></path>
                            <path d="M238.645241,20.0490669 L238.645241,20.0490669 C276.34864,20.0363524 306.923591,50.5906895 306.936306,88.2940888 C306.936308,88.3005021 306.936309,88.3069153 306.93631,88.3133286 L306.951675,365.69064 C306.953765,403.407782 276.385312,433.988239 238.668172,434.000958 L238.668172,434.000958 C200.964773,434.013672 170.389822,403.459335 170.377107,365.755936 C170.377105,365.749523 170.377104,365.74311 170.377103,365.736696 L170.361738,88.3593847 C170.359648,50.6422432 200.928101,20.061786 238.645241,20.0490669 Z" id="Rectangle-Copy-9" transform="translate(238.656707, 227.025012) scale(-1, 1) rotate(-45.000000) translate(-238.656707, -227.025012) "></path>
                            <path d="M368.948837,185.301605 L368.948837,185.301605 C393.425383,185.298342 413.270188,205.137858 413.273451,229.614404 C413.273451,229.617114 413.273451,229.619824 413.273451,229.622534 L413.269041,317.577672 C413.267814,342.060024 393.422333,361.907155 368.939982,361.910418 L368.939982,361.910418 C344.463436,361.913681 324.61863,342.074165 324.615368,317.597619 C324.615367,317.594909 324.615367,317.592199 324.615367,317.589489 L324.619777,229.634351 C324.621005,205.151999 344.466485,185.304868 368.948837,185.301605 Z" id="Rectangle-Copy-10" transform="translate(368.944409, 273.606011) scale(-1, 1) rotate(-45.000000) translate(-368.944409, -273.606011) "></path>
                        </g>
                        <g id="img-registro" transform="translate(57.000000, 59.000000)">
                            <path d="M87.3969178,174.793836 C39.1288813,174.793836 9.9475983e-14,135.664954 9.9475983e-14,87.3969178 C9.9475983e-14,39.1296804 39.1288813,9.9475983e-14 87.3969178,9.9475983e-14 C135.664954,9.9475983e-14 174.793836,39.1296804 174.793836,87.3969178 C174.793836,135.664954 135.664954,174.793836 87.3969178,174.793836 Z" id="Fill-1" fill="#4495FF"></path>
                            <g id="img-planificacion-registro" transform="translate(40.753425, 24.771689)">
                                <path d="M87.8947489,124.754304 L5.39223744,124.754304 C2.74406393,124.754304 0.597716895,122.607158 0.597716895,119.959783 L0.597716895,12.4826142 C0.597716895,9.83523973 2.74406393,7.68809361 5.39223744,7.68809361 L87.8947489,7.68809361 C90.5429224,7.68809361 92.6892694,9.83523973 92.6892694,12.4826142 L92.6892694,119.959783 C92.6892694,122.607158 90.5429224,124.754304 87.8947489,124.754304" id="Fill-7" fill="#0F0F30"></path>
                                <path d="M87.8947489,117.562523 L5.39223744,117.562523 C2.74406393,117.562523 0.597716895,115.415377 0.597716895,112.768002 L0.597716895,5.29083333 C0.597716895,2.6434589 2.74406393,0.496312785 5.39223744,0.496312785 L87.8947489,0.496312785 C90.5429224,0.496312785 92.6892694,2.6434589 92.6892694,5.29083333 L92.6892694,112.768002 C92.6892694,115.415377 90.5429224,117.562523 87.8947489,117.562523" id="Fill-9" fill="#5151D3"></path>
                                <path d="M50.6389269,110.620457 C50.6389269,112.827534 48.8505708,114.61589 46.6434932,114.61589 C44.4372146,114.61589 42.6480594,112.827534 42.6480594,110.620457 C42.6480594,108.413379 44.4372146,106.625023 46.6434932,106.625023 C48.8505708,106.625023 50.6389269,108.413379 50.6389269,110.620457" id="Fill-11" fill="#0F0F30"></path>
                                <path d="M6.79055936,4.50964612 L45.8443265,4.50964612" id="Stroke-13" stroke="#7676D0" stroke-width="6.4" stroke-linecap="round"></path>
                                <path d="M92.6869521,5.29083333 L92.6869521,112.768002 C92.6869521,115.412979 90.5453995,117.562523 87.8924315,117.562523 L68.1549886,117.562523 L68.1549886,0.496312785 L87.8924315,0.496312785 C90.5453995,0.496312785 92.6869521,2.64505708 92.6869521,5.29083333" id="Fill-15" fill="#4545B6"></path>
                                <path d="M9.12077626,102.400091 C8.23938356,102.400091 7.52260274,101.683311 7.52260274,100.801918 L7.52260274,13.2627626 C7.52260274,12.3821689 8.23938356,11.664589 9.12077626,11.664589 L84.1670091,11.664589 C85.0484018,11.664589 85.7651826,12.3821689 85.7651826,13.2627626 L85.7651826,100.801918 C85.7651826,101.683311 85.0484018,102.400091 84.1670091,102.400091 L9.12077626,102.400091 Z" id="Fill-17" fill="#FFFFFF"></path>
                                <path d="M84.16621,10.8656621 L9.12077626,10.8656621 C7.7966895,10.8656621 6.72351598,11.9396347 6.72351598,13.2629224 L6.72351598,100.802078 C6.72351598,102.126164 7.7966895,103.199338 9.12077626,103.199338 L84.16621,103.199338 C85.4902968,103.199338 86.5634703,102.126164 86.5634703,100.802078 L86.5634703,13.2629224 C86.5634703,11.9396347 85.4902968,10.8656621 84.16621,10.8656621 M84.16621,12.4638356 C84.6073059,12.4638356 84.9652968,12.8226256 84.9652968,13.2629224 L84.9652968,100.802078 C84.9652968,101.243174 84.6073059,101.601164 84.16621,101.601164 L9.12077626,101.601164 C8.68047945,101.601164 8.3216895,101.243174 8.3216895,100.802078 L8.3216895,13.2629224 C8.3216895,12.8226256 8.68047945,12.4638356 9.12077626,12.4638356 L84.16621,12.4638356" id="Fill-19" fill="#0F0F30"></path>
                                <path d="M80.1161986,99.1928767 L13.1711073,99.1928767 C11.8470205,99.1928767 10.773847,98.1189041 10.773847,96.7956164 L10.773847,17.8905936 C10.773847,16.5665068 11.8470205,15.4933333 13.1711073,15.4933333 L80.1161986,15.4933333 C81.4402854,15.4933333 82.5134589,16.5665068 82.5134589,17.8905936 L82.5134589,96.7956164 C82.5134589,98.1189041 81.4402854,99.1928767 80.1161986,99.1928767" id="Fill-21" fill="#CEE5FD"></path>
                                <path d="M82.5145776,17.892032 L82.5145776,25.3874658 L10.7725685,25.3874658 L10.7725685,17.892032 C10.7725685,16.5655479 11.8433447,15.4947717 13.1698288,15.4947717 L80.1173174,15.4947717 C81.4438014,15.4947717 82.5145776,16.5655479 82.5145776,17.892032" id="Fill-23" fill="#87B7DD"></path>
                                <path d="M6.79055936,4.50964612 L13.8808562,4.50964612" id="Stroke-25" stroke="#9595FF" stroke-width="6.4" stroke-linecap="round"></path>
                                <path d="M66.2741781,89.2667009 L27.0126484,89.2667009 C25.3825114,89.2667009 24.0608219,87.9450114 24.0608219,86.3140753 L24.0608219,35.5864498 C24.0608219,33.9555137 25.3825114,32.6338242 27.0126484,32.6338242 L66.2741781,32.6338242 C67.9051142,32.6338242 69.2268037,33.9555137 69.2268037,35.5864498 L69.2268037,86.3140753 C69.2268037,87.9450114 67.9051142,89.2667009 66.2741781,89.2667009" id="Fill-27" fill="#FFFFFF"></path>
                                <path d="M62.3075913,49.4723402 L30.979395,49.4723402 C30.4304224,49.4723402 29.9861301,49.0272489 29.9861301,48.4790753 L29.9861301,41.7699429 C29.9861301,41.2217694 30.4304224,40.7766781 30.979395,40.7766781 L62.3075913,40.7766781 C62.8565639,40.7766781 63.3008562,41.2217694 63.3008562,41.7699429 L63.3008562,48.4790753 C63.3008562,49.0272489 62.8565639,49.4723402 62.3075913,49.4723402" id="Fill-29" fill="#CEE5FD"></path>
                                <path d="M62.3075913,63.2191096 L30.979395,63.2191096 C30.4304224,63.2191096 29.9861301,62.7740183 29.9861301,62.2258447 L29.9861301,55.5175114 C29.9861301,54.9685388 30.4304224,54.5234475 30.979395,54.5234475 L62.3075913,54.5234475 C62.8565639,54.5234475 63.3008562,54.9685388 63.3008562,55.5175114 L63.3008562,62.2258447 C63.3008562,62.7740183 62.8565639,63.2191096 62.3075913,63.2191096" id="Fill-31" fill="#CEE5FD"></path>
                                <path d="M58.7199315,82.0405594 L34.5667352,82.0405594 C34.1240411,82.0405594 33.7652511,81.6817694 33.7652511,81.2390753 L33.7652511,75.5152169 C33.7652511,75.0725228 34.1240411,74.7137329 34.5667352,74.7137329 L58.7199315,74.7137329 C59.1626256,74.7137329 59.5214155,75.0725228 59.5214155,75.5152169 L59.5214155,81.2390753 C59.5214155,81.6817694 59.1626256,82.0405594 58.7199315,82.0405594" id="Fill-33" fill="#009450"></path>
                                <path d="M58.7199315,80.4423858 L34.5667352,80.4423858 C34.1240411,80.4423858 33.7652511,80.0835959 33.7652511,79.6409018 L33.7652511,73.9170434 C33.7652511,73.4743493 34.1240411,73.1155594 34.5667352,73.1155594 L58.7199315,73.1155594 C59.1626256,73.1155594 59.5214155,73.4743493 59.5214155,73.9170434 L59.5214155,79.6409018 C59.5214155,80.0835959 59.1626256,80.4423858 58.7199315,80.4423858" id="Fill-35" fill="#00E084"></path>
                                <path d="M33.9084475,45.1444863 L59.131621,45.1444863" id="Stroke-37" stroke="#0074E6" stroke-width="3.6728" stroke-linecap="round"></path>
                                <path d="M33.9084475,58.9022032 L33.9084475,58.9022032" id="Stroke-39" stroke="#0074E6" stroke-width="3.6728" stroke-linecap="round"></path>
                                <path d="M40.214121,58.9022032 L55.9793037,58.9022032" id="Stroke-41" stroke="#0074E6" stroke-width="3.6728" stroke-linecap="round" stroke-dasharray="0,6.312799835205078"></path>
                                <path d="M59.1315411,58.9022032 L59.1315411,58.9022032" id="Stroke-43" stroke="#0074E6" stroke-width="3.6728" stroke-linecap="round"></path>
                            </g>
                        </g>
                        <g id="img-configuracion" transform="translate(241.000000, 67.000000)">
                            <path d="M93.3969178,191.793836 C45.1288813,191.793836 6,152.664954 6,104.396918 C6,56.1296804 45.1288813,17 93.3969178,17 C141.664954,17 180.793836,56.1296804 180.793836,104.396918 C180.793836,152.664954 141.664954,191.793836 93.3969178,191.793836 Z" id="Fill-1" fill="#FF586B"></path>
                            <g id="img-planificacion-configuracion">
                                <g id="Group-3" transform="translate(0.000000, 4.041265)">
                                    <mask id="mask-2" fill="white">
                                        <use xlink:href="#path-1"></use>
                                    </mask>
                                    <g id="Clip-2"></g>
                                </g>
                                <path d="M70.5242009,79.4298478 C70.5242009,91.4014761 60.8408676,101.1066 48.8961187,101.1066 C36.9513699,101.1066 27.2680365,91.4014761 27.2680365,79.4298478 C27.2680365,67.4582195 36.9513699,57.7538965 48.8961187,57.7538965 C60.8408676,57.7538965 70.5242009,67.4582195 70.5242009,79.4298478" id="Fill-4" fill="#E66E46"></path>
                                <polygon id="Fill-6" fill="#E66E46" points="34.5219863 51.9863235 31.1770091 66.9965093 41.4588584 64.0708765 41.4588584 57.753496"></polygon>
                                <path d="M52.8209932,102.651667 L28.0325228,93.5840478 C28.0325228,93.5840478 13.2350342,134.548512 12.3832078,136.811012 C21.2858333,151.688251 32.1358333,159.705911 32.1358333,159.705911 L52.8209932,102.651667 Z" id="Fill-8" fill="#3591FF"></path>
                                <path d="M53.2404338,102.80808 L34.9405479,96.1142836 C34.8934018,101.987974 34.8007078,107.77677 34.8566438,113.560762 L47.623653,118.230722 C48.453105,118.534257 49.3704566,118.106585 49.6733105,117.275266 L54.1937443,104.861549 C54.4965982,104.030231 54.0698858,103.111615 53.2404338,102.80808" id="Fill-10" fill="#5F5FFF"></path>
                                <path d="M47.2850799,118.106985 L34.8912443,113.573175 C34.8912443,113.573175 22.6084817,147.308051 21.7470662,149.664255 C26.9043721,155.851091 32.1495776,159.669711 32.1495776,159.669711 L47.2850799,118.106985 Z" id="Fill-12" fill="#5F5FFF"></path>
                                <path d="M30.0543721,103.392326 L29.4870205,104.95325" id="Stroke-14" stroke="#A8CFFF" stroke-width="6.4" stroke-linecap="round"></path>
                                <path d="M128.75605,125.338415 L46.2535388,125.338415 C43.6053653,125.338415 41.4590183,123.186438 41.4590183,120.533106 L41.4590183,12.8140792 C41.4590183,10.1607473 43.6053653,8.00876947 46.2535388,8.00876947 L128.75605,8.00876947 C131.403425,8.00876947 133.550571,10.1607473 133.550571,12.8140792 L133.550571,120.533106 C133.550571,123.186438 131.403425,125.338415 128.75605,125.338415" id="Fill-16" fill="#0F0F30"></path>
                                <g id="Group-20" transform="translate(40.753425, 0.036841)">
                                    <mask id="mask-4" fill="white">
                                        <use xlink:href="#path-3"></use>
                                    </mask>
                                    <g id="Clip-19"></g>
                                    <path d="M88.0026256,118.09361 L5.50011416,118.09361 C2.85194064,118.09361 0.705593607,115.941632 0.705593607,113.2883 L0.705593607,5.56927389 C0.705593607,2.91594204 2.85194064,0.763964159 5.50011416,0.763964159 L88.0026256,0.763964159 C90.65,0.763964159 92.7971461,2.91594204 92.7971461,5.56927389 L92.7971461,113.2883 C92.7971461,115.941632 90.65,118.09361 88.0026256,118.09361" id="Fill-18" fill="#5151D3" mask="url(#mask-4)"></path>
                                </g>
                                <path d="M91.5002283,111.172763 C91.5002283,113.384006 89.7110731,115.177188 87.5047945,115.177188 C85.2977169,115.177188 83.5093607,113.384006 83.5093607,111.172763 C83.5093607,108.960719 85.2977169,107.168338 87.5047945,107.168338 C89.7110731,107.168338 91.5002283,108.960719 91.5002283,111.172763" id="Fill-21" fill="#0F0F30"></path>
                                <path d="M47.6518607,4.82324956 L86.7056279,4.82324956" id="Stroke-23" stroke="#7676D0" stroke-width="6.4" stroke-linecap="round"></path>
                                <g id="Group-27" transform="translate(108.675799, 0.036841)">
                                    <mask id="mask-6" fill="white">
                                        <use xlink:href="#path-5"></use>
                                    </mask>
                                    <g id="Clip-26"></g>
                                    <path d="M24.8720548,5.56927389 L24.8720548,113.2883 C24.8720548,115.93923 22.7305023,118.09361 20.0775342,118.09361 L0.340091324,118.09361 L0.340091324,0.763964159 L20.0775342,0.763964159 C22.7305023,0.763964159 24.8720548,2.91754381 24.8720548,5.56927389" id="Fill-25" fill="#4545B6" mask="url(#mask-6)"></path>
                                </g>
                                <path d="M49.9815982,102.933979 C49.1002055,102.933979 48.3834247,102.215585 48.3834247,101.332209 L48.3834247,13.5960633 C48.3834247,12.7134881 49.1002055,11.9942934 49.9815982,11.9942934 L125.027831,11.9942934 C125.909224,11.9942934 126.626005,12.7134881 126.626005,13.5960633 L126.626005,101.332209 C126.626005,102.215585 125.909224,102.933979 125.027831,102.933979 L49.9815982,102.933979 Z" id="Fill-28" fill="#FFFFFF"></path>
                                <path d="M125.027511,11.1935686 L49.9812785,11.1935686 C48.6579909,11.1935686 47.5840183,12.2691571 47.5840183,13.5962235 L47.5840183,101.332369 C47.5840183,102.659436 48.6579909,103.735024 49.9812785,103.735024 L125.027511,103.735024 C126.351598,103.735024 127.424772,102.659436 127.424772,101.332369 L127.424772,13.5962235 C127.424772,12.2691571 126.351598,11.1935686 125.027511,11.1935686 M125.027511,12.7953385 C125.467808,12.7953385 125.826598,13.154135 125.826598,13.5962235 L125.826598,101.332369 C125.826598,101.774458 125.467808,102.133254 125.027511,102.133254 L49.9812785,102.133254 C49.5409817,102.133254 49.1821918,101.774458 49.1821918,101.332369 L49.1821918,13.5962235 C49.1821918,13.154135 49.5409817,12.7953385 49.9812785,12.7953385 L125.027511,12.7953385" id="Fill-30" fill="#0F0F30"></path>
                                <path d="M120.97742,43.6575204 L54.0323288,43.6575204 C52.7074429,43.6575204 51.6350685,42.581131 51.6350685,41.2548655 L51.6350685,18.2342283 C51.6350685,16.9071619 52.7074429,15.8315735 54.0323288,15.8315735 L120.97742,15.8315735 C122.301507,15.8315735 123.37468,16.9071619 123.37468,18.2342283 L123.37468,41.2548655 C123.37468,42.581131 122.301507,43.6575204 120.97742,43.6575204" id="Fill-32" fill="#CEE5FD"></path>
                                <path d="M120.97742,68.484954 L91.5894064,68.484954 C90.2645205,68.484954 89.1921461,67.4085646 89.1921461,66.0822991 L89.1921461,51.0705115 C89.1921461,49.7434451 90.2645205,48.6678566 91.5894064,48.6678566 L120.97742,48.6678566 C122.301507,48.6678566 123.37468,49.7434451 123.37468,51.0705115 L123.37468,66.0822991 C123.37468,67.4085646 122.301507,68.484954 120.97742,68.484954" id="Fill-34" fill="#CEE5FD"></path>
                                <path d="M120.97742,98.1176973 L91.5894064,98.1176973 C90.2645205,98.1176973 89.1921461,97.041308 89.1921461,95.7150425 L89.1921461,75.0970602 C89.1921461,73.7699938 90.2645205,72.6944053 91.5894064,72.6944053 L120.97742,72.6944053 C122.301507,72.6944053 123.37468,73.7699938 123.37468,75.0970602 L123.37468,95.7150425 C123.37468,97.041308 122.301507,98.1176973 120.97742,98.1176973" id="Fill-36" fill="#CEE5FD"></path>
                                <path d="M123.375479,18.2356699 L123.375479,25.7479708 L51.6334703,25.7479708 L51.6334703,18.2356699 C51.6334703,16.9062009 52.7042466,15.833015 54.0307306,15.833015 L120.978219,15.833015 C122.304703,15.833015 123.375479,16.9062009 123.375479,18.2356699" id="Fill-38" fill="#87B7DD"></path>
                                <path d="M47.6518607,4.82324956 L54.7421575,4.82324956" id="Stroke-40" stroke="#9595FF" stroke-width="6.4" stroke-linecap="round"></path>
                                <path d="M59.7365297,56.1948137 L70.5242009,56.1948137" id="Stroke-42" stroke="#95BEE7" stroke-width="3.2" stroke-linecap="round"></path>
                                <path d="M83.4203425,98.1176973 L54.0323288,98.1176973 C52.7074429,98.1176973 51.6350685,97.041308 51.6350685,95.7150425 L51.6350685,51.0705115 C51.6350685,49.7434451 52.7074429,48.6678566 54.0323288,48.6678566 L83.4203425,48.6678566 C84.7444292,48.6678566 85.8176027,49.7434451 85.8176027,51.0705115 L85.8176027,95.7150425 C85.8176027,97.041308 84.7444292,98.1176973 83.4203425,98.1176973" id="Fill-44" fill="#CEE5FD"></path>
                                <path d="M58.9374429,56.1948137 L69.7251142,56.1948137" id="Stroke-46" stroke="#95BEE7" stroke-width="3.2" stroke-linecap="round"></path>
                                <path d="M58.9374429,64.2036633 L78.5150685,64.2036633" id="Stroke-48" stroke="#95BEE7" stroke-width="3.2" stroke-linecap="round"></path>
                                <path d="M58.9374429,72.2125128 L78.5150685,72.2125128" id="Stroke-50" stroke="#95BEE7" stroke-width="3.2" stroke-linecap="round"></path>
                                <path d="M58.9374429,80.2213624 L78.5150685,80.2213624" id="Stroke-52" stroke="#95BEE7" stroke-width="3.2" stroke-linecap="round"></path>
                                <path d="M58.9374429,33.770035 L116.072146,33.770035" id="Stroke-54" stroke="#95BEE7" stroke-width="3.2" stroke-linecap="round"></path>
                                <path d="M92.4514612,68.484954 L120.115046,68.484954 L112.685936,60.8717416 C112.160936,60.3335469 111.302717,60.3159274 110.756941,60.8324982 C108.516301,62.9540425 105.410251,65.9269274 105.410251,65.9269274 L101.620982,63.5154628 C101.064817,63.1622726 100.35363,63.1710823 99.8070548,63.5378876 L92.4514612,68.484954 Z" id="Fill-56" fill="#FFFFFF"></path>
                                <path d="M102.738505,59.6814664 C102.738505,60.6689575 103.537591,61.4698425 104.522865,61.4698425 C105.508139,61.4698425 106.307226,60.6689575 106.307226,59.6814664 C106.307226,58.6947761 105.508139,57.8938912 104.522865,57.8938912 C103.537591,57.8938912 102.738505,58.6947761 102.738505,59.6814664" id="Fill-58" fill="#87B7DD"></path>
                                <path d="M116.57661,135.98538 C105.781747,141.186327 92.8237557,136.633296 87.6336872,125.814141 C82.4444178,114.994986 86.987226,102.007836 97.782089,96.8060881 C108.576952,91.6051412 121.534943,96.1581721 126.725011,106.977327 C131.914281,117.796482 127.370674,130.783632 116.57661,135.98538" id="Fill-60" fill="#FF8851"></path>
                                <path d="M93.9879452,119.176887 C89.9733333,115.177268 88.3943379,113.634763 86.101758,111.283365 C84.9622603,115.990166 85.3761872,121.10702 87.6336073,125.813821 C92.8236758,136.632976 105.781667,141.186007 116.57653,135.98506 C121.689886,133.520737 125.397648,129.308883 127.335434,124.409069 C126.694566,125.024148 111.996963,137.120715 93.9879452,119.176887" id="Fill-62" fill="#E66E46"></path>
                                <path d="M88.907032,81.8810363 L99.60121,107.986682 C100.775068,110.852249 99.4086301,114.128669 96.5494977,115.304368 C93.6911644,116.480868 90.4221005,115.112156 89.248242,112.246589 L78.5540639,86.1409434 C77.3802055,83.275377 78.7466438,79.9989566 81.6057763,78.8232575 C84.4641096,77.6467575 87.7331735,79.0154699 88.907032,81.8810363" id="Fill-64" fill="#FF8851"></path>
                                <path d="M105.871244,91.6011367 L115.629692,115.424261 C116.80355,118.289827 115.437911,121.566247 112.578779,122.742747 C109.719646,123.919247 106.451381,122.549734 105.277523,119.684168 L95.5182763,95.8610438 C94.3444178,92.9954774 95.7108562,89.7190571 98.5691895,88.543358 C101.428322,87.366858 104.697386,88.7355704 105.871244,91.6011367" id="Fill-66" fill="#FF8851"></path>
                                <path d="M118.442397,93.3147903 L128.200845,117.137914 C129.375502,120.00268 128.009064,123.279901 125.150731,124.456401 C122.291598,125.632901 119.022534,124.263388 117.848676,121.397821 L108.089429,97.5746973 C106.915571,94.709131 108.282009,91.4327106 111.140342,90.2570115 C113.999475,89.0805115 117.268539,90.4492239 118.442397,93.3147903" id="Fill-68" fill="#FF8851"></path>
                                <path d="M86.9565411,111.728096 L93.9877055,119.177127 C96.1116781,121.426813 96.0133904,124.976335 93.7687557,127.105088 C91.5233219,129.23384 87.9817694,129.135331 85.8577968,126.885645 L78.8266324,119.436614 C76.7026598,117.186127 76.8017466,113.637406 79.0463813,111.508654 C81.291016,109.379101 84.8325685,109.47761 86.9565411,111.728096" id="Fill-70" fill="#E66E46"></path>
                                <path d="M83.9787443,83.5837177 L88.1555708,93.3032575" id="Stroke-72" stroke="#FFB899" stroke-width="6.4" stroke-linecap="round"></path>
                                <path d="M101.289041,92.452077 L101.588699,93.3026168" id="Stroke-74" stroke="#FFB899" stroke-width="6.4" stroke-linecap="round"></path>
                                <path d="M125.704418,128.443446 L108.389806,138.462517 C106.835582,139.361911 106.323368,141.365725 107.2575,142.901823 C111.639692,150.111389 123.062637,168.911362 124.373139,171.143429 C136.054989,166.187553 146.391176,156.469615 146.391176,156.469615 L130.032272,129.551871 C129.129304,128.065429 127.2075,127.573685 125.704418,128.443446" id="Fill-76" fill="#3591FF"></path>
                                <path d="M127.485982,135.720207 L130.5321,140.706517" id="Stroke-78" stroke="#A8CFFF" stroke-width="6.4" stroke-linecap="round"></path>
                                <path d="M48.9519749,53.1954195 C48.9519749,57.2486982 45.674121,60.5331274 41.6299429,60.5331274 C37.5865639,60.5331274 34.30871,57.2486982 34.30871,53.1954195 C34.30871,49.1421407 37.5865639,45.8577115 41.6299429,45.8577115 C45.674121,45.8577115 48.9519749,49.1421407 48.9519749,53.1954195" id="Fill-80" fill="#FF8851"></path>
                                <path d="M41.8752626,50.1780053 C42.3035731,50.2252575 42.8133904,50.3525982 43.316016,50.6473239" id="Stroke-82" stroke="#FFB899" stroke-width="6.4" stroke-linecap="round"></path>
                            </g>
                        </g>
                        <g id="img-clase-ok" transform="translate(133.000000, 241.000000)">
                            <g id="Group-3" transform="translate(0.000000, 4.041265)">
                                <mask id="mask-8" fill="white">
                                    <use xlink:href="#path-7"></use>
                                </mask>
                                <g id="Clip-2"></g>
                                <path d="M174.794075,87.7999765 C174.794075,136.176631 135.665194,175.393565 87.3971575,175.393565 C39.129121,175.393565 0.000239726027,136.176631 0.000239726027,87.7999765 C0.000239726027,39.4241226 39.129121,0.206388053 87.3971575,0.206388053 C135.665194,0.206388053 174.794075,39.4241226 174.794075,87.7999765" id="Fill-1" fill="#8CE024" mask="url(#mask-8)"></path>
                            </g>
                            <path d="M70.5242009,79.4298478 C70.5242009,91.4014761 60.8408676,101.1066 48.8961187,101.1066 C36.9513699,101.1066 27.2680365,91.4014761 27.2680365,79.4298478 C27.2680365,67.4582195 36.9513699,57.7538965 48.8961187,57.7538965 C60.8408676,57.7538965 70.5242009,67.4582195 70.5242009,79.4298478" id="Fill-4" fill="#E66E46"></path>
                            <polygon id="Fill-6" fill="#E66E46" points="34.5219863 51.9863235 31.1770091 66.9965093 41.4588584 64.0708765 41.4588584 57.753496"></polygon>
                            <path d="M52.7589041,102.530413 L27.9704338,93.4627938 C27.9704338,93.4627938 13.1729452,134.427258 12.3211187,136.689758 C21.2245434,151.567798 32.0745434,159.584657 32.0745434,159.584657 L52.7589041,102.530413 Z" id="Fill-8" fill="#3591FF"></path>
                            <path d="M53.1783447,102.686826 L34.8784589,95.9930296 C34.8321119,101.86672 34.7386187,107.655516 34.7953539,113.439508 L47.562363,118.110269 C48.391016,118.413003 49.3083676,117.985331 49.6112215,117.154012 L54.1316553,104.740295 C54.4345091,103.909777 54.0077968,102.990362 53.1783447,102.686826" id="Fill-10" fill="#5F5FFF"></path>
                            <path d="M47.2234703,117.985731 L34.8288356,113.451921 C34.8288356,113.451921 22.5468721,147.186797 21.6854566,149.543802 C26.8427626,155.729837 32.0871689,159.549258 32.0871689,159.549258 L47.2234703,117.985731 Z" id="Fill-12" fill="#5F5FFF"></path>
                            <path d="M29.9927626,103.271072 L29.425411,104.831996" id="Stroke-14" stroke="#A8CFFF" stroke-width="6.4" stroke-linecap="round"></path>
                            <path d="M106.313699,77.3768593 C106.313699,65.2979124 116.084132,55.5046912 128.136758,55.5046912 C140.188584,55.5046912 149.959018,65.2979124 149.959018,77.3768593 C149.959018,89.4566071 140.188584,99.2490274 128.136758,99.2490274 C116.084132,99.2490274 106.313699,89.4566071 106.313699,77.3768593" id="Fill-16" fill="#FF8851"></path>
                            <path d="M142.460308,68.9511491 L142.460308,45.9209013" id="Stroke-18" stroke="#FF8851" stroke-width="11.7344" stroke-linecap="round"></path>
                            <path d="M129.835696,61.9637482 L129.835696,41.8703456" id="Stroke-20" stroke="#FF8851" stroke-width="11.7344" stroke-linecap="round"></path>
                            <path d="M117.211005,69.4164633 L117.211005,46.3862155" id="Stroke-22" stroke="#FF8851" stroke-width="11.7344" stroke-linecap="round"></path>
                            <path d="M110.902215,84.1655606 L102.76911,70.5889588" id="Stroke-24" stroke="#FF8851" stroke-width="11.7344" stroke-linecap="round"></path>
                            <path d="M122.103493,102.558524 L146.891963,93.4909049 C146.891963,93.4909049 161.689452,134.455369 162.541279,136.717869 C153.637854,151.595909 142.787854,159.612768 142.787854,159.612768 L122.103493,102.558524 Z" id="Fill-26" fill="#5F5FFF"></path>
                            <path d="M121.684053,102.715017 L139.983938,96.0212208 C140.031084,101.894911 140.123779,107.683708 140.067842,113.467699 L127.300833,118.13846 C126.471381,118.441194 125.55403,118.014323 125.251176,117.182203 L120.730742,104.768486 C120.427888,103.937969 120.8546,103.018553 121.684053,102.715017" id="Fill-28" fill="#5F5FFF"></path>
                            <path d="M127.638927,118.013922 L140.033562,113.480112 C140.033562,113.480112 152.316324,147.214988 153.176941,149.571993 C148.019635,155.758028 142.775228,159.577449 142.775228,159.577449 L127.638927,118.013922 Z" id="Fill-30" fill="#5F5FFF"></path>
                            <path d="M153.175023,149.573034 C148.020913,155.755866 142.778904,159.576087 142.778904,159.576087 L140.085982,152.183919 L140.085982,113.637326 C141.004932,116.144096 152.351963,147.314538 153.175023,149.573034" id="Fill-32" fill="#3591FF"></path>
                            <path d="M144.869635,103.299183 L145.436986,104.860108" id="Stroke-34" stroke="#A8CFFF" stroke-width="6.4" stroke-linecap="round"></path>
                            <path d="M128.75605,125.338415 L46.2535388,125.338415 C43.6053653,125.338415 41.4590183,123.186438 41.4590183,120.533106 L41.4590183,12.8140792 C41.4590183,10.1607473 43.6053653,8.00876947 46.2535388,8.00876947 L128.75605,8.00876947 C131.403425,8.00876947 133.550571,10.1607473 133.550571,12.8140792 L133.550571,120.533106 C133.550571,123.186438 131.403425,125.338415 128.75605,125.338415" id="Fill-36" fill="#0F0F30"></path>
                            <g id="Group-40" transform="translate(40.753425, 0.036841)">
                                <mask id="mask-10" fill="white">
                                    <use xlink:href="#path-9"></use>
                                </mask>
                                <g id="Clip-39"></g>
                                <path d="M88.0026256,118.09361 L5.50011416,118.09361 C2.85194064,118.09361 0.705593607,115.941632 0.705593607,113.2883 L0.705593607,5.56927389 C0.705593607,2.91594204 2.85194064,0.763964159 5.50011416,0.763964159 L88.0026256,0.763964159 C90.65,0.763964159 92.7971461,2.91594204 92.7971461,5.56927389 L92.7971461,113.2883 C92.7971461,115.941632 90.65,118.09361 88.0026256,118.09361" id="Fill-38" fill="#5151D3" mask="url(#mask-10)"></path>
                            </g>
                            <path d="M91.5002283,111.172763 C91.5002283,113.384006 89.7110731,115.177188 87.5047945,115.177188 C85.2977169,115.177188 83.5093607,113.384006 83.5093607,111.172763 C83.5093607,108.960719 85.2977169,107.168338 87.5047945,107.168338 C89.7110731,107.168338 91.5002283,108.960719 91.5002283,111.172763" id="Fill-41" fill="#0F0F30"></path>
                            <path d="M47.6518607,4.82324956 L86.7056279,4.82324956" id="Stroke-43" stroke="#7676D0" stroke-width="6.4" stroke-linecap="round"></path>
                            <g id="Group-47" transform="translate(108.675799, 0.036841)">
                                <mask id="mask-12" fill="white">
                                    <use xlink:href="#path-11"></use>
                                </mask>
                                <g id="Clip-46"></g>
                                <path d="M24.8720548,5.56927389 L24.8720548,113.2883 C24.8720548,115.93923 22.7305023,118.09361 20.0775342,118.09361 L0.340091324,118.09361 L0.340091324,0.763964159 L20.0775342,0.763964159 C22.7305023,0.763964159 24.8720548,2.91754381 24.8720548,5.56927389" id="Fill-45" fill="#4545B6" mask="url(#mask-12)"></path>
                            </g>
                            <path d="M49.9815982,102.933979 C49.1002055,102.933979 48.3834247,102.215585 48.3834247,101.332209 L48.3834247,13.5960633 C48.3834247,12.7134881 49.1002055,11.9942934 49.9815982,11.9942934 L125.027831,11.9942934 C125.909224,11.9942934 126.626005,12.7134881 126.626005,13.5960633 L126.626005,101.332209 C126.626005,102.215585 125.909224,102.933979 125.027831,102.933979 L49.9815982,102.933979 Z" id="Fill-48" fill="#FFFFFF"></path>
                            <path d="M125.027511,11.1935686 L49.9812785,11.1935686 C48.6579909,11.1935686 47.5840183,12.2691571 47.5840183,13.5962235 L47.5840183,101.332369 C47.5840183,102.659436 48.6579909,103.735024 49.9812785,103.735024 L125.027511,103.735024 C126.351598,103.735024 127.424772,102.659436 127.424772,101.332369 L127.424772,13.5962235 C127.424772,12.2691571 126.351598,11.1935686 125.027511,11.1935686 M125.027511,12.7953385 C125.467808,12.7953385 125.826598,13.154135 125.826598,13.5962235 L125.826598,101.332369 C125.826598,101.774458 125.467808,102.133254 125.027511,102.133254 L49.9812785,102.133254 C49.5409817,102.133254 49.1821918,101.774458 49.1821918,101.332369 L49.1821918,13.5962235 C49.1821918,13.154135 49.5409817,12.7953385 49.9812785,12.7953385 L125.027511,12.7953385" id="Fill-50" fill="#0F0F30"></path>
                            <path d="M47.6518607,4.82324956 L54.7421575,4.82324956" id="Stroke-52" stroke="#9595FF" stroke-width="6.4" stroke-linecap="round"></path>
                            <path d="M48.9519749,53.1954195 C48.9519749,57.2486982 45.674121,60.5331274 41.6299429,60.5331274 C37.5865639,60.5331274 34.30871,57.2486982 34.30871,53.1954195 C34.30871,49.1421407 37.5865639,45.8577115 41.6299429,45.8577115 C45.674121,45.8577115 48.9519749,49.1421407 48.9519749,53.1954195" id="Fill-54" fill="#FF8851"></path>
                            <path d="M41.8752626,50.1780053 C42.3035731,50.2252575 42.8133904,50.3525982 43.316016,50.6473239" id="Stroke-56" stroke="#FFB899" stroke-width="6.4" stroke-linecap="round"></path>
                            <path d="M111.836347,58.5764053 C111.836347,72.0440867 100.942397,82.9625513 87.5049543,82.9625513 C74.0667123,82.9625513 63.1727626,72.0440867 63.1727626,58.5764053 C63.1727626,45.107923 74.0667123,34.1902593 87.5049543,34.1902593 C100.942397,34.1902593 111.836347,45.107923 111.836347,58.5764053" id="Fill-58" fill="#00E33A"></path>
                            <polygon id="Fill-60" fill="#FFFFFF" points="83.6599087 70.5599668 73.5546575 60.4319757 78.0750913 55.9013695 83.6599087 61.4987544 98.5325114 46.5926836 103.052945 51.1224889"></polygon>
                            <path d="M144.092842,45.9209814 L144.092842,54.4111628" id="Stroke-62" stroke="#FFB899" stroke-width="6.4" stroke-linecap="round"></path>
                        </g>
                    </g>
                </g>
            </g>
        </g>
    </g>
</svg>