<svg id="Grupo_38556" data-name="Grupo 38556" xmlns="http://www.w3.org/2000/svg" xmlns:xlink="http://www.w3.org/1999/xlink" width="742.712" height="93.258" viewBox="0 0 742.712 93.258">
  <defs>
    <clipPath id="clip-path">
      <rect id="Rectángulo_17860" data-name="Rectángulo 17860" width="742.712" height="93.258" fill="none"/>
    </clipPath>
  </defs>
  <path id="Trazado_30597" data-name="Trazado 30597" d="M322.019,79.72H302.074l-3.427,9.732h-8.156l17.066-47.7H316.6l17.066,47.7h-8.225Zm-2.193-6.374-7.745-22.138-7.813,22.138Z" transform="translate(-137.339 -19.738)" fill="#f8b014"/>
  <g id="Grupo_38555" data-name="Grupo 38555">
    <g id="Grupo_38554" data-name="Grupo 38554" clip-path="url(#clip-path)">
      <path id="Trazado_30598" data-name="Trazado 30598" d="M428.071,89.514,417.105,70.46h-5.963V89.514h-7.813V41.88h16.449a20.458,20.458,0,0,1,9.287,1.919,13.322,13.322,0,0,1,5.689,5.14,13.99,13.99,0,0,1,1.885,7.2,14.262,14.262,0,0,1-2.707,8.464,13.742,13.742,0,0,1-8.327,5.174l11.789,19.74ZM411.142,64.223h8.636q4.385,0,6.614-2.193a7.9,7.9,0,0,0,2.228-5.894,7.62,7.62,0,0,0-2.193-5.791q-2.194-2.09-6.648-2.09h-8.636Z" transform="translate(-190.687 -19.8)" fill="#f8b014"/>
      <path id="Trazado_30599" data-name="Trazado 30599" d="M534.527,55.035a12.6,12.6,0,0,0-5.14-5.38,15.488,15.488,0,0,0-7.608-1.816,16.63,16.63,0,0,0-8.43,2.125,14.887,14.887,0,0,0-5.791,6.031,18.879,18.879,0,0,0-2.09,9.047,19.082,19.082,0,0,0,2.09,9.082,14.828,14.828,0,0,0,5.791,6.066,16.63,16.63,0,0,0,8.43,2.124,14.914,14.914,0,0,0,10.349-3.564,15.491,15.491,0,0,0,4.866-9.664H519.106V62.847h26.25v6.1a23.531,23.531,0,0,1-23.577,20.424,24.612,24.612,0,0,1-12.268-3.118,23.247,23.247,0,0,1-8.807-8.67,24.329,24.329,0,0,1-3.256-12.543A24.329,24.329,0,0,1,500.7,52.5a23.178,23.178,0,0,1,8.841-8.67,25.994,25.994,0,0,1,25.77.617,21.279,21.279,0,0,1,8.6,10.589Z" transform="translate(-235.185 -19.247)" fill="#f8b014"/>
      <path id="Trazado_30600" data-name="Trazado 30600" d="M627.461,41.88V72.242q0,5.415,2.844,8.156t7.917,2.742q5.14,0,7.985-2.742t2.844-8.156V41.88h7.813V72.105a18.22,18.22,0,0,1-2.536,9.87,15.73,15.73,0,0,1-6.785,6.031,21.878,21.878,0,0,1-9.39,1.988,21.646,21.646,0,0,1-9.355-1.988,15.347,15.347,0,0,1-6.682-6.031,18.61,18.61,0,0,1-2.467-9.87V41.88Z" transform="translate(-292.958 -19.8)" fill="#f8b014"/>
      <path id="Trazado_30601" data-name="Trazado 30601" d="M776.546,41.88V89.514h-7.813V56.89L754.2,89.514h-5.415l-14.6-32.624V89.514h-7.813V41.88h8.43l16.723,37.353L768.184,41.88Z" transform="translate(-343.418 -19.8)" fill="#f8b014"/>
      <path id="Trazado_30602" data-name="Trazado 30602" d="M865.748,48.123V62.105H882.2v6.374h-16.45v14.6h18.506v6.374H857.935v-47.7h26.319v6.375Z" transform="translate(-405.616 -19.738)" fill="#f8b014"/>
      <path id="Trazado_30603" data-name="Trazado 30603" d="M982.088,89.452h-7.813L950.766,53.881V89.452h-7.813V41.75h7.813l23.509,35.5V41.75h7.813Z" transform="translate(-445.812 -19.738)" fill="#f8b014"/>
      <path id="Trazado_30604" data-name="Trazado 30604" d="M1082.142,41.88v6.374h-12.68v41.26h-7.813V48.254H1048.9V41.88Z" transform="translate(-495.902 -19.8)" fill="#f8b014"/>
      <path id="Trazado_30605" data-name="Trazado 30605" d="M1170,79.72h-19.945l-3.427,9.732h-8.157l17.067-47.7h9.047l17.066,47.7h-8.224Zm-2.193-6.374-7.744-22.138-7.814,22.138Z" transform="translate(-538.248 -19.738)" fill="#f8b014"/>
      <path id="Trazado_30606" data-name="Trazado 30606" d="M1282.906,62.921a12.844,12.844,0,0,1-5.483,5.243,20.352,20.352,0,0,1-9.664,2.022h-8.635V89.514h-7.814V41.88h16.449a20.78,20.78,0,0,1,9.287,1.884,13.116,13.116,0,0,1,5.689,5.106,14,14,0,0,1,1.884,7.2,14.385,14.385,0,0,1-1.714,6.854m-8.5-1.131a7.4,7.4,0,0,0,2.193-5.723q0-7.813-8.841-7.813h-8.635V63.812h8.635q4.454,0,6.648-2.022" transform="translate(-591.597 -19.8)" fill="#f8b014"/>
      <path id="Trazado_30607" data-name="Trazado 30607" d="M1377.154,62.921a12.843,12.843,0,0,1-5.483,5.243,20.351,20.351,0,0,1-9.664,2.022h-8.635V89.514h-7.814V41.88h16.449a20.781,20.781,0,0,1,9.287,1.884,13.116,13.116,0,0,1,5.689,5.106,14,14,0,0,1,1.884,7.2,14.385,14.385,0,0,1-1.714,6.854m-8.5-1.131a7.4,7.4,0,0,0,2.193-5.723q0-7.813-8.841-7.813h-8.635V63.812h8.635q4.454,0,6.648-2.022" transform="translate(-636.156 -19.8)" fill="#f8b014"/>
      <path id="Trazado_30608" data-name="Trazado 30608" d="M32.717,0A32.717,32.717,0,0,0,0,32.717V65.435H32.717A32.717,32.717,0,0,0,32.717,0" fill="#f8b014"/>
      <path id="Trazado_30609" data-name="Trazado 30609" d="M134.391,112.066H98.249a36.142,36.142,0,1,1,36.142-36.142ZM98.249,46.632a29.292,29.292,0,1,0,0,58.585h29.293V75.924A29.326,29.326,0,0,0,98.249,46.632" transform="translate(-29.363 -18.808)" fill="#9c5fa2"/>
    </g>
  </g>
</svg>
