<?xml version="1.0" encoding="UTF-8"?>
<svg width="189px" height="33px" viewBox="0 0 189 33" version="1.1" xmlns="http://www.w3.org/2000/svg" xmlns:xlink="http://www.w3.org/1999/xlink">
    <!-- Generator: Sketch 52.5 (67469) - http://www.bohemiancoding.com/sketch -->
    <title>Group 6</title>
    <desc>Created with Sketch.</desc>
    <g id="Symbols" stroke="none" stroke-width="1" fill="none" fill-rule="evenodd">
        <g id="Logo-text-grey" transform="translate(-7.000000, -8.000000)">
            <g id="Group-6">
                <polygon id="Clip-2" points="23 20 40.5687141 20 40.5687141 41.2080261 23 41.2080261"></polygon>
                <g id="Group" transform="translate(25.000000, 22.500000) rotate(3.000000) translate(-25.000000, -22.500000) translate(4.000000, 2.000000)">
                    <path d="M32.530956,30.0233403 L28.3294828,22.661269 C26.9930818,20.3187432 24.0603409,19.1907309 21.6007357,20.3344931 C20.1572604,21.0059911 19.1723293,22.239259 18.7890676,23.6204189 C18.4492497,24.8881218 18.5698786,26.2819471 19.2685513,27.5045881 L22.8238849,33.7352439 L22.7922992,33.7143105 L18.4620586,36.1749455 L24.5636741,36.2711867 C26.1621335,37.7576608 28.5934916,38.1266348 30.6008301,36.9869025 C33.0630425,35.5869977 33.9261909,32.4696762 32.530956,30.0233403" id="Fill-1" fill="#0066FF" transform="translate(25.830190, 28.769755) rotate(-315.000000) translate(-25.830190, -28.769755) "></path>
                    <path d="M21.0155681,16.4360195 C20.0697062,15.5214801 18.7817824,14.9434041 17.3544611,14.9472298 L10.138096,14.961283 L10.146648,10.023686 L7.01177476,15.2090198 C4.88019897,15.8460599 3.31512259,17.7728811 3.31063872,20.0753505 C3.30516884,22.8841331 5.61614145,25.1559409 8.47184375,25.1503796 L17.0655421,25.132598 C19.7989331,25.1272749 22.2660159,23.1505766 22.4945882,20.4689835 C22.6295336,18.8964361 22.0399533,17.4435087 21.0155681,16.4360195" id="Fill-4" fill="#00DF88" transform="translate(12.912154, 17.587038) rotate(-315.000000) translate(-12.912154, -17.587038) "></path>
                    <path d="M21.8757561,20.6507422 C23.1865409,21.5737999 24.7680092,21.8158589 26.1817608,21.4591337 C27.4746896,21.1227199 28.6477422,20.3205645 29.3844368,19.1008323 L33.0293026,13.0677578 L37.4956156,15.5347505 L34.4777157,10.2807099 C35.098714,8.0954407 34.2194297,5.69331358 32.1567177,4.48114628 C29.6936338,3.03412957 26.5036025,3.83915624 25.0302153,6.27756398 L20.5950339,13.6213455 C19.1849103,15.9571367 19.640589,19.0775424 21.8757561,20.6507422" id="Fill-7" fill="#FFB200" transform="translate(28.643315, 12.689118) rotate(-315.000000) translate(-28.643315, -12.689118) "></path>
                </g>
                <polygon id="Clip-5" points="0 23 22.9052632 23 22.9052632 41.0392157 0 41.0392157"></polygon>
                <path d="M63.8172,27.7074 L57.5552,27.7074 L56.3634,31 L54.3838,31 L59.656,17.0216 L61.7366,17.0216 L66.9886,31 L65.009,31 L63.8172,27.7074 Z M63.292,26.2732 L60.6862,19.082 L58.0804,26.2732 L63.292,26.2732 Z M70.6852,22.1524 C71.0488018,21.3847962 71.5807298,20.7889021 72.281,20.3647 C72.9812702,19.9404979 73.8161952,19.7284 74.7858,19.7284 L74.7858,21.7282 L74.2202,21.7282 C73.1832615,21.7282 72.33487,21.994164 71.675,22.5261 C71.01513,23.058036 70.6852,23.9367272 70.6852,25.1622 L70.6852,31 L68.847,31 L68.847,19.9102 L70.6852,19.9102 L70.6852,22.1524 Z M81.1488,19.7688 C82.2261387,19.7688 83.1384963,20.0381306 83.8859,20.5768 C84.6333037,21.1154694 85.1551319,21.8359288 85.4514,22.7382 L85.4514,19.9102 L87.2896,19.9102 L87.2896,31.1818 C87.2896,32.2052718 87.0741355,33.1142627 86.6432,33.9088 C86.2122645,34.7033373 85.6062706,35.3227978 84.8252,35.7672 C84.0441294,36.2116022 83.1351385,36.4338 82.0982,36.4338 C80.6033925,36.4338 79.3846714,36.0735703 78.442,35.3531 C77.4993286,34.6326297 76.9000679,33.6596728 76.6442,32.4342 L78.4622,32.4342 C78.6776677,33.1748704 79.0850303,33.7572979 79.6843,34.1815 C80.2835697,34.6057021 81.0545286,34.8178 81.9972,34.8178 C82.9937383,34.8178 83.8185634,34.4979699 84.4717,33.8583 C85.1248366,33.2186301 85.4514,32.3264724 85.4514,31.1818 L85.4514,28.172 C85.1551319,29.0742712 84.6333037,29.7947306 83.8859,30.3334 C83.1384963,30.8720694 82.2261387,31.1414 81.1488,31.1414 C80.1657284,31.1414 79.2904038,30.912469 78.5228,30.4546 C77.7551962,29.996731 77.1525689,29.3402376 76.7149,28.4851 C76.2772311,27.6299624 76.0584,26.6233391 76.0584,25.4652 C76.0584,24.3070609 76.2772311,23.297071 76.7149,22.4352 C77.1525689,21.573329 77.7551962,20.913469 78.5228,20.4556 C79.2904038,19.997731 80.1657284,19.7688 81.1488,19.7688 Z M81.674,21.405 C80.5427943,21.405 79.6371701,21.7652297 78.9571,22.4857 C78.2770299,23.2061703 77.937,24.199327 77.937,25.4652 C77.937,26.731073 78.2770299,27.7242297 78.9571,28.4447 C79.6371701,29.1651703 80.5427943,29.5254 81.674,29.5254 C82.4012036,29.5254 83.0509638,29.3570683 83.6233,29.0204 C84.1956362,28.6837316 84.6433984,28.2090364 84.9666,27.5963 C85.2898016,26.9835636 85.4514,26.273204 85.4514,25.4652 C85.4514,24.657196 85.2898016,23.9434698 84.9666,23.324 C84.6433984,22.7045302 84.1956362,22.229835 83.6233,21.8999 C83.0509638,21.569965 82.4012036,21.405 81.674,21.405 Z M100.0762,19.9102 L100.0762,31 L98.238,31 L98.238,28.3942 C97.9551986,29.2964712 97.4535703,29.9866309 96.7331,30.4647 C96.0126297,30.9427691 95.1743381,31.1818 94.2182,31.1818 C92.9388603,31.1818 91.9019373,30.7677041 91.1074,29.9395 C90.3128627,29.1112959 89.9156,27.9228744 89.9156,26.3742 L89.9156,19.9102 L91.7538,19.9102 L91.7538,26.1924 C91.7538,27.2966722 92.0365972,28.1484303 92.6022,28.7477 C93.1678028,29.3469697 93.9353952,29.6466 94.905,29.6466 C95.9150051,29.6466 96.722997,29.3200366 97.329,28.6669 C97.935003,28.0137634 98.238,27.0610063 98.238,25.8086 L98.238,19.9102 L100.0762,19.9102 Z M116.6604,19.7284 C117.953206,19.7284 118.993496,20.1424959 119.7813,20.9707 C120.569104,21.7989041 120.963,22.9940589 120.963,24.5562 L120.963,31 L119.1248,31 L119.1248,24.7178 C119.1248,23.6269945 118.858836,22.7920696 118.3269,22.213 C117.794964,21.6339304 117.064405,21.3444 116.1352,21.3444 C115.165595,21.3444 114.387903,21.6642301 113.8021,22.3039 C113.216297,22.9435699 112.9234,23.8828605 112.9234,25.1218 L112.9234,31 L111.0852,31 L111.0852,24.7178 C111.0852,23.6269945 110.815869,22.7920696 110.2772,22.213 C109.738531,21.6339304 109.011338,21.3444 108.0956,21.3444 C107.112528,21.3444 106.328103,21.6642301 105.7423,22.3039 C105.156497,22.9435699 104.8636,23.8828605 104.8636,25.1218 L104.8636,31 L103.0254,31 L103.0254,19.9102 L104.8636,19.9102 L104.8636,22.4352 C105.132935,21.5598623 105.614363,20.8899023 106.3079,20.4253 C107.001437,19.9606977 107.799329,19.7284 108.7016,19.7284 C109.644271,19.7284 110.462363,19.9674309 111.1559,20.4455 C111.849437,20.9235691 112.344332,21.6271954 112.6406,22.5564 C112.950335,21.6541288 113.468796,20.9572358 114.196,20.4657 C114.923204,19.9741642 115.744662,19.7284 116.6604,19.7284 Z M134.0122,24.839 C134.0122,25.2295353 133.985267,25.5661986 133.9314,25.849 L125.0636,25.849 C125.104,27.114873 125.46423,28.0642635 126.1443,28.6972 C126.82437,29.3301365 127.655928,29.6466 128.639,29.6466 C129.527804,29.6466 130.27183,29.4210356 130.8711,28.9699 C131.47037,28.5187644 131.837333,27.9161371 131.972,27.162 L133.9314,27.162 C133.796733,27.9296038 133.497102,28.616397 133.0325,29.2224 C132.567898,29.828403 131.96527,30.2997316 131.2246,30.6364 C130.48393,30.9730683 129.649005,31.1414 128.7198,31.1414 C127.655928,31.1414 126.713271,30.912469 125.8918,30.4546 C125.070329,29.996731 124.427302,29.3402376 123.9627,28.4851 C123.498098,27.6299624 123.2658,26.6233391 123.2658,25.4652 C123.2658,24.3070609 123.498098,23.297071 123.9627,22.4352 C124.427302,21.573329 125.070329,20.913469 125.8918,20.4556 C126.713271,19.997731 127.655928,19.7688 128.7198,19.7688 C129.797139,19.7688 130.736429,19.997731 131.5377,20.4556 C132.338971,20.913469 132.951698,21.5261962 133.3759,22.2938 C133.800102,23.0614038 134.0122,23.9097954 134.0122,24.839 Z M132.1538,24.9602 C132.1942,24.1387292 132.059535,23.4519361 131.7498,22.8998 C131.440065,22.3476639 131.015869,21.9369347 130.4772,21.6676 C129.938531,21.3982653 129.352736,21.2636 128.7198,21.2636 C127.709795,21.2636 126.861403,21.5766969 126.1746,22.2029 C125.487797,22.8291031 125.117467,23.7481939 125.0636,24.9602 L132.1538,24.9602 Z M142.2538,19.7284 C143.546606,19.7284 144.590263,20.1424959 145.3848,20.9707 C146.179337,21.7989041 146.5766,22.9940589 146.5766,24.5562 L146.5766,31 L144.7384,31 L144.7384,24.7178 C144.7384,23.6135278 144.455603,22.7651363 143.89,22.1726 C143.324397,21.5800637 142.556805,21.2838 141.5872,21.2838 C140.577195,21.2838 139.769203,21.6103634 139.1632,22.2635 C138.557197,22.9166366 138.2542,23.8693937 138.2542,25.1218 L138.2542,31 L136.416,31 L136.416,19.9102 L138.2542,19.9102 L138.2542,22.5362 C138.537001,21.6339288 139.03863,20.9404024 139.7591,20.4556 C140.47957,19.9707976 141.311129,19.7284 142.2538,19.7284 Z M154.697,29.384 L154.697,31 L153.3234,31 C152.192194,31 151.347169,30.7306694 150.7883,30.192 C150.229431,29.6533306 149.95,28.751073 149.95,27.4852 L149.95,21.506 L148.2936,21.506 L148.2936,19.9102 L149.95,19.9102 L149.95,17.1428 L151.8084,17.1428 L151.8084,19.9102 L154.6768,19.9102 L154.6768,21.506 L151.8084,21.506 L151.8084,27.5256 C151.8084,28.2393369 151.939699,28.7274987 152.2023,28.9901 C152.464901,29.2527013 152.919397,29.384 153.5658,29.384 L154.697,29.384 Z M161.4842,19.7688 C162.561539,19.7688 163.473896,20.0381306 164.2213,20.5768 C164.968704,21.1154694 165.490532,21.8359288 165.7868,22.7382 L165.7868,19.9102 L167.625,19.9102 L167.625,31 L165.7868,31 L165.7868,28.172 C165.490532,29.0742712 164.968704,29.7947306 164.2213,30.3334 C163.473896,30.8720694 162.561539,31.1414 161.4842,31.1414 C160.501128,31.1414 159.625804,30.912469 158.8582,30.4546 C158.090596,29.996731 157.487969,29.3402376 157.0503,28.4851 C156.612631,27.6299624 156.3938,26.6233391 156.3938,25.4652 C156.3938,24.3070609 156.612631,23.297071 157.0503,22.4352 C157.487969,21.573329 158.090596,20.913469 158.8582,20.4556 C159.625804,19.997731 160.501128,19.7688 161.4842,19.7688 Z M162.0094,21.405 C160.878194,21.405 159.97257,21.7652297 159.2925,22.4857 C158.61243,23.2061703 158.2724,24.199327 158.2724,25.4652 C158.2724,26.731073 158.61243,27.7242297 159.2925,28.4447 C159.97257,29.1651703 160.878194,29.5254 162.0094,29.5254 C162.736604,29.5254 163.386364,29.3570683 163.9587,29.0204 C164.531036,28.6837316 164.978798,28.2090364 165.302,27.5963 C165.625202,26.9835636 165.7868,26.273204 165.7868,25.4652 C165.7868,24.657196 165.625202,23.9434698 165.302,23.324 C164.978798,22.7045302 164.531036,22.229835 163.9587,21.8999 C163.386364,21.569965 162.736604,21.405 162.0094,21.405 Z M176.6746,19.7688 C177.657672,19.7688 178.532996,19.997731 179.3006,20.4556 C180.068204,20.913469 180.670831,21.573329 181.1085,22.4352 C181.546169,23.297071 181.765,24.3070609 181.765,25.4652 C181.765,26.6233391 181.546169,27.6299624 181.1085,28.4851 C180.670831,29.3402376 180.068204,29.996731 179.3006,30.4546 C178.532996,30.912469 177.657672,31.1414 176.6746,31.1414 C175.597261,31.1414 174.684904,30.8687027 173.9375,30.3233 C173.190096,29.7778973 172.675001,29.0608044 172.3922,28.172 L172.3922,36.252 L170.554,36.252 L170.554,19.9102 L172.3922,19.9102 L172.3922,22.7382 C172.675001,21.8493956 173.190096,21.1323027 173.9375,20.5869 C174.684904,20.0414973 175.597261,19.7688 176.6746,19.7688 Z M176.1494,21.405 C175.435663,21.405 174.78927,21.569965 174.2102,21.8999 C173.63113,22.229835 173.180002,22.7045302 172.8568,23.324 C172.533598,23.9434698 172.372,24.657196 172.372,25.4652 C172.372,26.273204 172.533598,26.9835636 172.8568,27.5963 C173.180002,28.2090364 173.63113,28.6837316 174.2102,29.0204 C174.78927,29.3570683 175.435663,29.5254 176.1494,29.5254 C177.294072,29.5254 178.20643,29.1651703 178.8865,28.4447 C179.56657,27.7242297 179.9066,26.731073 179.9066,25.4652 C179.9066,24.199327 179.56657,23.2061703 178.8865,22.4857 C178.20643,21.7652297 177.294072,21.405 176.1494,21.405 Z M190.2894,19.7688 C191.272472,19.7688 192.147796,19.997731 192.9154,20.4556 C193.683004,20.913469 194.285631,21.573329 194.7233,22.4352 C195.160969,23.297071 195.3798,24.3070609 195.3798,25.4652 C195.3798,26.6233391 195.160969,27.6299624 194.7233,28.4851 C194.285631,29.3402376 193.683004,29.996731 192.9154,30.4546 C192.147796,30.912469 191.272472,31.1414 190.2894,31.1414 C189.212061,31.1414 188.299704,30.8687027 187.5523,30.3233 C186.804896,29.7778973 186.289801,29.0608044 186.007,28.172 L186.007,36.252 L184.1688,36.252 L184.1688,19.9102 L186.007,19.9102 L186.007,22.7382 C186.289801,21.8493956 186.804896,21.1323027 187.5523,20.5869 C188.299704,20.0414973 189.212061,19.7688 190.2894,19.7688 Z M189.7642,21.405 C189.050463,21.405 188.40407,21.569965 187.825,21.8999 C187.24593,22.229835 186.794802,22.7045302 186.4716,23.324 C186.148398,23.9434698 185.9868,24.657196 185.9868,25.4652 C185.9868,26.273204 186.148398,26.9835636 186.4716,27.5963 C186.794802,28.2090364 187.24593,28.6837316 187.825,29.0204 C188.40407,29.3570683 189.050463,29.5254 189.7642,29.5254 C190.908872,29.5254 191.82123,29.1651703 192.5013,28.4447 C193.18137,27.7242297 193.5214,26.731073 193.5214,25.4652 C193.5214,24.199327 193.18137,23.2061703 192.5013,22.4857 C191.82123,21.7652297 190.908872,21.405 189.7642,21.405 Z" id="Argumentapp" fill="#616161"></path>
            </g>
        </g>
    </g>
</svg>